<?xml version="1.0" encoding="UTF-8" standalone="no"?>
<!-- Created with Inkscape (http://www.inkscape.org/) -->

<svg
   width="210mm"
   height="297mm"
   viewBox="0 0 210 297"
   version="1.1"
   id="svg1"
   inkscape:version="1.4.3 (1:1.4.3+202512261035+0d15f75042)"
   sodipodi:docname="Fig03.svg"
   xmlns:inkscape="http://www.inkscape.org/namespaces/inkscape"
   xmlns:sodipodi="http://sodipodi.sourceforge.net/DTD/sodipodi-0.dtd"
   xmlns="http://www.w3.org/2000/svg"
   xmlns:svg="http://www.w3.org/2000/svg"
   xmlns:ns5="http://www.iki.fi/pav/software/textext/">
  <sodipodi:namedview
     id="namedview1"
     pagecolor="#ffffff"
     bordercolor="#666666"
     borderopacity="1.0"
     inkscape:showpageshadow="2"
     inkscape:pageopacity="0.0"
     inkscape:pagecheckerboard="0"
     inkscape:deskcolor="#d1d1d1"
     inkscape:document-units="mm"
     inkscape:zoom="2.0560856"
     inkscape:cx="519.19045"
     inkscape:cy="251.20549"
     inkscape:window-width="2494"
     inkscape:window-height="1523"
     inkscape:window-x="0"
     inkscape:window-y="0"
     inkscape:window-maximized="1"
     inkscape:current-layer="layer1"
     showgrid="false" />
  <defs
     id="defs1">
    <marker
       style="overflow:visible"
       id="marker33"
       refX="0"
       refY="0"
       orient="auto"
       inkscape:stockid="Dot"
       markerWidth="1"
       markerHeight="1"
       viewBox="0 0 1 1"
       inkscape:isstock="true"
       inkscape:collect="always"
       preserveAspectRatio="xMidYMid">
      <path
         transform="scale(0.5)"
         style="fill:context-stroke;fill-rule:evenodd;stroke:none"
         d="M 5,0 C 5,2.76 2.76,5 0,5 -2.76,5 -5,2.76 -5,0 c 0,-2.76 2.3,-5 5,-5 2.76,0 5,2.24 5,5 z"
         sodipodi:nodetypes="sssss"
         id="path33" />
    </marker>
    <marker
       style="overflow:visible"
       id="marker32"
       refX="0"
       refY="0"
       orient="auto"
       inkscape:stockid="Dot"
       markerWidth="1"
       markerHeight="1"
       viewBox="0 0 1 1"
       inkscape:isstock="true"
       inkscape:collect="always"
       preserveAspectRatio="xMidYMid">
      <path
         transform="scale(0.5)"
         style="fill:context-stroke;fill-rule:evenodd;stroke:none"
         d="M 5,0 C 5,2.76 2.76,5 0,5 -2.76,5 -5,2.76 -5,0 c 0,-2.76 2.3,-5 5,-5 2.76,0 5,2.24 5,5 z"
         sodipodi:nodetypes="sssss"
         id="path32" />
    </marker>
    <marker
       style="overflow:visible"
       id="Dot"
       refX="0"
       refY="0"
       orient="auto"
       inkscape:stockid="Dot"
       markerWidth="1"
       markerHeight="1"
       viewBox="0 0 1 1"
       inkscape:isstock="true"
       inkscape:collect="always"
       preserveAspectRatio="xMidYMid">
      <path
         transform="scale(0.5)"
         style="fill:context-stroke;fill-rule:evenodd;stroke:none"
         d="M 5,0 C 5,2.76 2.76,5 0,5 -2.76,5 -5,2.76 -5,0 c 0,-2.76 2.3,-5 5,-5 2.76,0 5,2.24 5,5 z"
         sodipodi:nodetypes="sssss"
         id="path17" />
    </marker>
    <marker
       style="overflow:visible"
       id="marker30"
       refX="0"
       refY="0"
       orient="auto-start-reverse"
       inkscape:stockid="Triangle arrow"
       markerWidth="1"
       markerHeight="1"
       viewBox="0 0 1 1"
       inkscape:isstock="true"
       inkscape:collect="always"
       preserveAspectRatio="xMidYMid">
      <path
         transform="scale(0.5)"
         style="fill:context-stroke;fill-rule:evenodd;stroke:context-stroke;stroke-width:1pt"
         d="M 5.77,0 -2.88,5 V -5 Z"
         id="path30" />
    </marker>
    <marker
       style="overflow:visible"
       id="Triangle"
       refX="0"
       refY="0"
       orient="auto-start-reverse"
       inkscape:stockid="Triangle arrow"
       markerWidth="1"
       markerHeight="1"
       viewBox="0 0 1 1"
       inkscape:isstock="true"
       inkscape:collect="always"
       preserveAspectRatio="xMidYMid">
      <path
         transform="scale(0.5)"
         style="fill:context-stroke;fill-rule:evenodd;stroke:context-stroke;stroke-width:1pt"
         d="M 5.77,0 -2.88,5 V -5 Z"
         id="path135" />
    </marker>
    <marker
       style="overflow:visible"
       id="marker30-7"
       refX="0"
       refY="0"
       orient="auto-start-reverse"
       inkscape:stockid="Triangle arrow"
       markerWidth="1"
       markerHeight="1"
       viewBox="0 0 1 1"
       inkscape:isstock="true"
       inkscape:collect="always"
       preserveAspectRatio="xMidYMid">
      <path
         transform="scale(0.5)"
         style="fill:context-stroke;fill-rule:evenodd;stroke:context-stroke;stroke-width:1pt"
         d="M 5.77,0 -2.88,5 V -5 Z"
         id="path30-5" />
    </marker>
    <marker
       style="overflow:visible"
       id="Triangle-3"
       refX="0"
       refY="0"
       orient="auto-start-reverse"
       inkscape:stockid="Triangle arrow"
       markerWidth="1"
       markerHeight="1"
       viewBox="0 0 1 1"
       inkscape:isstock="true"
       inkscape:collect="always"
       preserveAspectRatio="xMidYMid">
      <path
         transform="scale(0.5)"
         style="fill:context-stroke;fill-rule:evenodd;stroke:context-stroke;stroke-width:1pt"
         d="M 5.77,0 -2.88,5 V -5 Z"
         id="path135-5" />
    </marker>
    <g
       id="id-6c7edcfa-f317-40e9-a5a4-4c08dc02d709-6">
      <symbol
         overflow="visible"
         id="id-2340882e-19af-4375-8d17-254782431bae-0">
        <path
           style="stroke:none;stroke-width:0"
           d=""
           id="id-35f2d27b-d39d-480d-9083-bf7d3711d635-6" />
      </symbol>
      <symbol
         overflow="visible"
         id="id-6be08364-cada-4e14-961c-b9d4fabe5f4a-2">
        <path
           style="stroke:none;stroke-width:0"
           d="m 4.25,-6.046875 c 0.078125,-0.28125 0.109375,-0.34375 0.234375,-0.375 0.09375,-0.015625 0.421875,-0.015625 0.625,-0.015625 1.015625,0 1.453125,0.03125 1.453125,0.8125 0,0.15625 -0.03125,0.546875 -0.078125,0.796875 0,0.046875 -0.03125,0.15625 -0.03125,0.1875 0,0.0625 0.03125,0.140625 0.125,0.140625 0.109375,0 0.125,-0.078125 0.15625,-0.234375 L 7,-6.46875 C 7.015625,-6.515625 7.015625,-6.609375 7.015625,-6.640625 7.015625,-6.75 6.921875,-6.75 6.75,-6.75 H 1.21875 c -0.234375,0 -0.25,0.015625 -0.328125,0.203125 l -0.59375,1.75 c 0,0.015625 -0.0625,0.15625 -0.0625,0.1875 0,0.046875 0.0625,0.109375 0.125,0.109375 0.09375,0 0.109375,-0.0625 0.171875,-0.21875 C 1.0625,-6.265625 1.328125,-6.4375 2.796875,-6.4375 H 3.1875 c 0.28125,0 0.28125,0.03125 0.28125,0.125 0,0.046875 -0.03125,0.171875 -0.046875,0.203125 L 2.09375,-0.78125 C 2,-0.421875 1.96875,-0.3125 0.90625,-0.3125 c -0.359375,0 -0.421875,0 -0.421875,0.1875 C 0.484375,0 0.59375,0 0.65625,0 c 0.265625,0 0.546875,-0.015625 0.8125,-0.015625 0.28125,0 0.578125,-0.015625 0.859375,-0.015625 0.28125,0 0.546875,0.015625 0.828125,0.015625 C 3.4375,-0.015625 3.734375,0 4.015625,0 c 0.09375,0 0.21875,0 0.21875,-0.203125 0,-0.109375 -0.078125,-0.109375 -0.34375,-0.109375 -0.234375,0 -0.375,0 -0.625,-0.015625 -0.296875,-0.03125 -0.375,-0.0625 -0.375,-0.21875 0,-0.015625 0,-0.0625 0.046875,-0.203125 z m 0,0"
           id="id-b4cf63ce-9f70-45c7-99c1-ab9d9a45d4cb-6" />
      </symbol>
    </g>
    <g
       id="id-867bd73c-caf7-4b53-acf5-afe4cad5983b-4">
      <symbol
         overflow="visible"
         id="id-179d4988-e72b-4b49-a691-40eddcb97914-7">
        <path
           style="stroke:none"
           d=""
           id="id-f8bc4bfa-5217-4de0-b49f-1baae3d1d79c-8" />
      </symbol>
      <symbol
         overflow="visible"
         id="id-197a1356-ac65-48cd-ab53-f4a2bedabc05-4">
        <path
           style="stroke:none"
           d="m 4.25,-6.046875 c 0.078125,-0.28125 0.109375,-0.34375 0.234375,-0.375 0.09375,-0.015625 0.421875,-0.015625 0.625,-0.015625 1.015625,0 1.453125,0.03125 1.453125,0.8125 0,0.15625 -0.03125,0.546875 -0.078125,0.796875 0,0.046875 -0.03125,0.15625 -0.03125,0.1875 0,0.0625 0.03125,0.140625 0.125,0.140625 0.109375,0 0.125,-0.078125 0.15625,-0.234375 L 7,-6.46875 C 7.015625,-6.515625 7.015625,-6.609375 7.015625,-6.640625 7.015625,-6.75 6.921875,-6.75 6.75,-6.75 H 1.21875 c -0.234375,0 -0.25,0.015625 -0.328125,0.203125 l -0.59375,1.75 c 0,0.015625 -0.0625,0.15625 -0.0625,0.1875 0,0.046875 0.0625,0.109375 0.125,0.109375 0.09375,0 0.109375,-0.0625 0.171875,-0.21875 C 1.0625,-6.265625 1.328125,-6.4375 2.796875,-6.4375 H 3.1875 c 0.28125,0 0.28125,0.03125 0.28125,0.125 0,0.046875 -0.03125,0.171875 -0.046875,0.203125 L 2.09375,-0.78125 C 2,-0.421875 1.96875,-0.3125 0.90625,-0.3125 c -0.359375,0 -0.421875,0 -0.421875,0.1875 C 0.484375,0 0.59375,0 0.65625,0 c 0.265625,0 0.546875,-0.015625 0.8125,-0.015625 0.28125,0 0.578125,-0.015625 0.859375,-0.015625 0.28125,0 0.546875,0.015625 0.828125,0.015625 C 3.4375,-0.015625 3.734375,0 4.015625,0 c 0.09375,0 0.21875,0 0.21875,-0.203125 0,-0.109375 -0.078125,-0.109375 -0.34375,-0.109375 -0.234375,0 -0.375,0 -0.625,-0.015625 -0.296875,-0.03125 -0.375,-0.0625 -0.375,-0.21875 0,-0.015625 0,-0.0625 0.046875,-0.203125 z m 0,0"
           id="id-7310b51c-29f0-4082-a3b3-1156344b67b3-5" />
      </symbol>
      <symbol
         overflow="visible"
         id="id-5af5a348-022e-4f29-86e0-176a18f3a878-0">
        <path
           style="stroke:none"
           d=""
           id="id-8ee71151-9864-4139-bef7-d02bfb1b607b-3" />
      </symbol>
      <symbol
         overflow="visible"
         id="id-613f4d48-e337-4559-a53d-994c1ec99e97-6">
        <path
           style="stroke:none"
           d="M 1.96875,-4.625 C 1.96875,-4.640625 2,-4.734375 2,-4.734375 2,-4.78125 1.96875,-4.84375 1.875,-4.84375 c -0.140625,0 -0.71875,0.0625 -0.890625,0.078125 -0.046875,0 -0.140625,0.015625 -0.140625,0.15625 0,0.09375 0.09375,0.09375 0.171875,0.09375 0.34375,0 0.34375,0.0625 0.34375,0.109375 0,0.046875 -0.015625,0.09375 -0.03125,0.15625 l -0.875,3.4375 C 0.4375,-0.734375 0.4375,-0.65625 0.4375,-0.59375 c 0,0.453125 0.390625,0.65625 0.71875,0.65625 0.171875,0 0.390625,-0.046875 0.5625,-0.359375 C 1.875,-0.5625 1.96875,-0.96875 1.96875,-1 c 0,-0.09375 -0.09375,-0.09375 -0.109375,-0.09375 -0.109375,0 -0.125,0.046875 -0.140625,0.171875 C 1.625,-0.578125 1.484375,-0.125 1.1875,-0.125 1,-0.125 0.953125,-0.296875 0.953125,-0.46875 0.953125,-0.546875 0.96875,-0.671875 1,-0.75 Z m 0,0"
           id="id-dc76a34b-2249-4881-8cd2-67e04ccfa654-1" />
      </symbol>
      <symbol
         overflow="visible"
         id="id-de6cb750-0a88-4860-a499-972b1629e018-0">
        <path
           style="stroke:none"
           d="m 2.265625,-4.359375 c 0,-0.109375 -0.09375,-0.265625 -0.28125,-0.265625 -0.1875,0 -0.390625,0.1875 -0.390625,0.390625 0,0.109375 0.078125,0.265625 0.28125,0.265625 0.1875,0 0.390625,-0.203125 0.390625,-0.390625 z M 0.84375,-0.8125 c -0.03125,0.09375 -0.0625,0.171875 -0.0625,0.296875 0,0.328125 0.265625,0.578125 0.65625,0.578125 0.6875,0 1,-0.953125 1,-1.0625 0,-0.09375 -0.09375,-0.09375 -0.109375,-0.09375 -0.09375,0 -0.109375,0.046875 -0.140625,0.125 -0.15625,0.5625 -0.453125,0.84375 -0.734375,0.84375 -0.140625,0 -0.171875,-0.09375 -0.171875,-0.25 0,-0.15625 0.046875,-0.28125 0.109375,-0.4375 C 1.46875,-1 1.546875,-1.1875 1.609375,-1.375 1.671875,-1.546875 1.9375,-2.171875 1.953125,-2.265625 1.984375,-2.328125 2,-2.40625 2,-2.484375 2,-2.8125 1.71875,-3.078125 1.34375,-3.078125 0.640625,-3.078125 0.328125,-2.125 0.328125,-2 c 0,0.078125 0.09375,0.078125 0.125,0.078125 0.09375,0 0.09375,-0.03125 0.125,-0.109375 C 0.75,-2.625 1.0625,-2.875 1.3125,-2.875 c 0.109375,0 0.171875,0.046875 0.171875,0.234375 0,0.171875 -0.03125,0.265625 -0.203125,0.703125 z m 0,0"
           id="id-4483a0ac-c588-4018-8e00-b60222cb9303-6" />
      </symbol>
      <symbol
         overflow="visible"
         id="id-63e8745f-9d9c-45e0-8880-77b06f629423-3">
        <path
           style="stroke:none"
           d="m 3.546875,-2.875 c 0,-0.03125 0.015625,-0.0625 0.015625,-0.09375 0,-0.046875 -0.03125,-0.109375 -0.09375,-0.109375 -0.0625,0 -0.359375,0.234375 -0.5,0.46875 -0.0625,-0.140625 -0.296875,-0.46875 -0.75,-0.46875 -0.890625,0 -1.796875,0.984375 -1.796875,1.984375 0,0.6875 0.453125,1.15625 1.0625,1.15625 0.390625,0 0.71875,-0.25 0.875,-0.375 C 2.34375,-0.296875 2.125,0.578125 2.109375,0.703125 2,1.09375 2,1.09375 1.5625,1.09375 c -0.078125,0 -0.171875,0 -0.171875,0.15625 0,0.046875 0.03125,0.109375 0.09375,0.109375 0.234375,0 0.5,-0.03125 0.734375,-0.03125 0.234375,0 0.53125,0.03125 0.75,0.03125 0.0625,0 0.125,-0.03125 0.125,-0.15625 C 3.09375,1.09375 3,1.09375 2.921875,1.09375 c -0.15625,0 -0.34375,0 -0.34375,-0.078125 0,-0.015625 0,-0.03125 0.03125,-0.15625 z M 2.5,-0.875 C 2.453125,-0.765625 2.453125,-0.75 2.375,-0.640625 2.09375,-0.3125 1.765625,-0.125 1.5,-0.125 c -0.265625,0 -0.515625,-0.1875 -0.515625,-0.671875 0,-0.375 0.203125,-1.140625 0.375,-1.421875 0.3125,-0.5625 0.671875,-0.65625 0.859375,-0.65625 0.484375,0 0.625,0.53125 0.625,0.609375 0,0.03125 -0.015625,0.078125 -0.015625,0.09375 z m 0,0"
           id="id-321ea166-50fa-4925-909e-47e6dd94d53a-2" />
      </symbol>
    </g>
    <marker
       style="overflow:visible"
       id="Sketch"
       refX="0"
       refY="0"
       orient="auto-start-reverse"
       inkscape:stockid="Sketched arrow"
       markerWidth="1"
       markerHeight="1"
       viewBox="0 0 1 1"
       inkscape:isstock="true"
       inkscape:collect="always"
       preserveAspectRatio="xMidYMid">
      <path
         style="fill:none;stroke:context-stroke;stroke-width:0.4;stroke-linecap:round"
         d="m -4.5421538,-3.2452189 3.83900644,2.60235235 0.56348102,0.59255887 L -2.4921466,1.1808717 -4.4106004,2.139946 -4.5795251,2.8245356 -4.703996,3.0734773 -4.3128019,2.6822832 -3.9749524,2.3088707 0.66603196,-0.12720162 0.02589622,-0.32279868 -1.7613224,-0.60366199 -3.580874,-2.0472634 -4.3186004,-2.392437 l -1.2937699,-0.2549423 2.1825172,0.042166 0.6996091,1.0554873 1.4406512,0.1145833 1.20879971,0.91674665 1.53333299,0.47138389 -1.85995289,1.23785256 -2.03832621,0.9224332 -1.5469949,0.9779853"
         sodipodi:nodetypes="ccc"
         id="path9" />
    </marker>
    <marker
       style="overflow:visible"
       id="Tail"
       refX="0"
       refY="0"
       orient="auto-start-reverse"
       inkscape:stockid="Arrow tail"
       markerWidth="1"
       markerHeight="1"
       viewBox="0 0 1 1"
       inkscape:isstock="true"
       inkscape:collect="always"
       preserveAspectRatio="xMidYMid">
      <path
         style="fill:none;fill-rule:evenodd;stroke:context-stroke;stroke-width:1;stroke-linecap:round"
         d="m -3.0000001,-3 -3.1102256,3 3.1102256,3 M -4.0952644e-8,-3 -3.0000001,0 -4.0952644e-8,3 M 3,3 -4.0952644e-8,0 3,-3"
         sodipodi:nodetypes="ccccccccc"
         id="path10" />
    </marker>
  </defs>
  <g
     inkscape:label="Layer 1"
     inkscape:groupmode="layer"
     id="layer1">
    <g
       id="g9"
       inkscape:export-filename="Fig03.png"
       inkscape:export-xdpi="500"
       inkscape:export-ydpi="500">
      <circle
         style="fill:none;fill-opacity:0.5;stroke:#000000;stroke-width:0.499998;stroke-linejoin:round;stroke-dasharray:none;stroke-dashoffset:0;stroke-opacity:1"
         id="path6-3"
         cx="135.05453"
         cy="40.644119"
         r="7.250001" />
      <g
         id="g12-1"
         transform="matrix(0.3016781,0,0,0.30855704,104.26483,-16.989773)"
         style="stroke-width:3.27763">
        <path
           style="fill:none;stroke:#000000;stroke-width:0.867206px;stroke-linecap:butt;stroke-linejoin:miter;stroke-opacity:1"
           d="m 91.838819,175.98645 3.362399,-1.94128"
           id="path7-8"
           sodipodi:nodetypes="cc" />
        <path
           style="fill:none;stroke:#000000;stroke-width:0.867206px;stroke-linecap:butt;stroke-linejoin:miter;stroke-opacity:1"
           d="m 95.163557,173.97184 1.914601,3.31618"
           id="path8-9"
           sodipodi:nodetypes="cc" />
        <path
           style="fill:none;stroke:#000000;stroke-width:0.867206px;stroke-linecap:butt;stroke-linejoin:miter;stroke-opacity:1"
           d="m 97.07619,177.32774 -0.856393,3.1961 -2.722758,0.72956 -1.918414,-1.91841 0.290459,-3.33402"
           id="path9-6" />
      </g>
      <path
         style="fill:none;stroke:#000000;stroke-width:0.5;stroke-linecap:butt;stroke-linejoin:miter;stroke-dasharray:none;stroke-opacity:1;marker-start:url(#marker30);marker-end:url(#Triangle)"
         d="m 106.3359,21.373285 v 62.035737 h 44.57591"
         id="path29"
         sodipodi:nodetypes="ccc" />
      <path
         style="fill:none;stroke:#000000;stroke-width:0.5;stroke-linecap:butt;stroke-linejoin:miter;stroke-dasharray:none;stroke-opacity:1;marker-start:url(#marker30-7);marker-end:url(#Triangle-3)"
         d="m 91.24485,21.373282 v 62.03574 H 71.492267"
         id="path29-9"
         sodipodi:nodetypes="ccc" />
      <path
         style="fill:none;stroke:#000000;stroke-width:0.4;stroke-linecap:butt;stroke-linejoin:miter;stroke-dasharray:none;stroke-opacity:1;marker-start:url(#marker33);marker-mid:url(#marker32);marker-end:url(#Dot)"
         d="m 115.0589,22.666382 8.41214,22.476625 20.80609,11.699374 2.61276,22.197161"
         id="path31"
         sodipodi:nodetypes="cccc" />
      <path
         style="fill:none;stroke:#000000;stroke-width:0.264583px;stroke-linecap:butt;stroke-linejoin:miter;stroke-dasharray:1.05833, 1.05833;stroke-dashoffset:0;stroke-opacity:1"
         d="M 123.07703,45.191593 H 106.41377"
         id="path3"
         sodipodi:nodetypes="cc" />
      <path
         style="fill:none;stroke:#000000;stroke-width:0.264583px;stroke-linecap:butt;stroke-linejoin:miter;stroke-dasharray:1.05833, 1.05833;stroke-dashoffset:0;stroke-opacity:1"
         d="M 91.211205,45.137797 H 71.371158"
         id="path3-5"
         sodipodi:nodetypes="cc" />
      <path
         style="fill:none;stroke:#000000;stroke-width:0.264583px;stroke-linecap:butt;stroke-linejoin:miter;stroke-dasharray:1.05833, 1.05833;stroke-dashoffset:0;stroke-opacity:1"
         d="M 143.9368,56.863061 H 106.32851"
         id="path3-6"
         sodipodi:nodetypes="cc" />
      <path
         style="fill:none;stroke:#000000;stroke-width:0.264583px;stroke-linecap:butt;stroke-linejoin:miter;stroke-dasharray:1.05833, 1.05833;stroke-dashoffset:0;stroke-opacity:1"
         d="M 91.077773,56.797839 H 86.196768"
         id="path3-7"
         sodipodi:nodetypes="cc" />
      <path
         style="fill:none;stroke:#000000;stroke-width:0.264583px;stroke-linecap:butt;stroke-linejoin:miter;stroke-opacity:1"
         d="m 86.283288,83.126357 c 0,0 0,-21.713863 0,-26.106458 0,-4.392595 -15.052182,-11.978679 -15.052182,-11.978679 0,0 14.644866,1.298887 14.933618,-8.864978 0.288752,-10.163865 -0.02767,-15.469337 -0.02767,-15.469337"
         id="path4"
         sodipodi:nodetypes="czczc" />
      <g
         transform="matrix(0.529167,0,0,0.529167,61.411625,79.083727)"
         ns5:version="1.9.0"
         ns5:texconverter="pdflatex"
         ns5:pdfconverter="inkscape"
         ns5:text="$\\Delta \\Phi$"
         ns5:preamble="/home/jeff/.config/inkscape/extensions/textext/default_packages.tex"
         ns5:scale="1.5"
         ns5:alignment="middle center"
         ns5:stroke-to-path="0"
         ns5:inkscapeversion="1.3.2"
         id="g5836"
         ns5:jacobian_sqrt="0.529167">
        <defs
           id="id-898d5bb3-8e5e-4a4c-b8d6-f683be746c50">
          <g
             id="id-8c9580d5-0205-4c19-ac09-08323595a716">
            <symbol
               overflow="visible"
               id="id-4b87189d-861f-4193-8447-c89b2155de9f">
              <path
                 style="stroke:none"
                 d=""
                 id="id-affaf4ff-5ea2-4181-95ef-3f4f819ca58e" />
            </symbol>
            <symbol
               overflow="visible"
               id="id-2923cf8a-c4d8-4aa6-b200-44578d239bb9">
              <path
                 style="stroke:none"
                 d="m 4.40625,-6.953125 c -0.0625,-0.140625 -0.09375,-0.1875 -0.265625,-0.1875 -0.15625,0 -0.1875,0.046875 -0.25,0.1875 l -3.375,6.75 C 0.46875,-0.109375 0.46875,-0.09375 0.46875,-0.078125 0.46875,0 0.53125,0 0.6875,0 h 6.921875 c 0.15625,0 0.21875,0 0.21875,-0.078125 0,-0.015625 0,-0.03125 -0.046875,-0.125 z m -0.578125,0.8125 2.6875,5.390625 h -5.375 z m 0,0"
                 id="id-40191032-fc20-463e-9e34-c2c1c834e5cf" />
            </symbol>
            <symbol
               overflow="visible"
               id="id-5675ef62-a75f-4a16-a7ef-a3b1d145df69">
              <path
                 style="stroke:none"
                 d="M 3.984375,-1.34375 C 5.515625,-1.46875 6.625,-2.390625 6.625,-3.40625 6.625,-4.4375 5.5,-5.34375 3.984375,-5.46875 v -0.546875 c 0,-0.34375 0,-0.484375 0.9375,-0.484375 H 5.25 v -0.3125 c -0.359375,0.03125 -1.265625,0.03125 -1.6875,0.03125 -0.40625,0 -1.328125,0 -1.6875,-0.03125 V -6.5 h 0.328125 c 0.953125,0 0.953125,0.125 0.953125,0.484375 V -5.46875 C 1.625,-5.3125 0.5625,-4.390625 0.5625,-3.40625 c 0,1.03125 1.109375,1.90625 2.59375,2.0625 v 0.5625 c 0,0.328125 0,0.46875 -0.953125,0.46875 H 1.875 V 0 c 0.359375,-0.03125 1.28125,-0.03125 1.6875,-0.03125 0.40625,0 1.328125,0 1.6875,0.03125 V -0.3125 H 4.921875 c -0.9375,0 -0.9375,-0.125 -0.9375,-0.46875 z M 3.15625,-1.578125 C 1.734375,-1.765625 1.5625,-2.78125 1.5625,-3.40625 c 0,-0.515625 0.09375,-1.625 1.59375,-1.828125 z M 3.984375,-5.25 c 1.375,0.171875 1.640625,1.078125 1.640625,1.84375 0,0.59375 -0.140625,1.65625 -1.640625,1.84375 z m 0,0"
                 id="id-613d28c6-b4b1-4825-a73e-a3b36df36306" />
            </symbol>
          </g>
        </defs>
        <g
           id="id-379e263b-3895-41a3-bcce-16166ed8f235"
           transform="translate(-149.181,-127.624)">
          <g
             style="fill:#000000;fill-opacity:1"
             id="id-5912d75b-e5bf-4f2e-aaee-00f93097009c">
            <g
               transform="translate(148.712,134.765)"
               id="g2720">
              <path
                 style="stroke:none"
                 d="m 4.40625,-6.953125 c -0.0625,-0.140625 -0.09375,-0.1875 -0.265625,-0.1875 -0.15625,0 -0.1875,0.046875 -0.25,0.1875 l -3.375,6.75 C 0.46875,-0.109375 0.46875,-0.09375 0.46875,-0.078125 0.46875,0 0.53125,0 0.6875,0 h 6.921875 c 0.15625,0 0.21875,0 0.21875,-0.078125 0,-0.015625 0,-0.03125 -0.046875,-0.125 z m -0.578125,0.8125 2.6875,5.390625 h -5.375 z m 0,0"
                 id="id-532c18b8-2048-488e-bdad-36ef26307b67" />
            </g>
            <g
               transform="translate(157.014,134.765)"
               id="g3797">
              <path
                 style="stroke:none"
                 d="M 3.984375,-1.34375 C 5.515625,-1.46875 6.625,-2.390625 6.625,-3.40625 6.625,-4.4375 5.5,-5.34375 3.984375,-5.46875 v -0.546875 c 0,-0.34375 0,-0.484375 0.9375,-0.484375 H 5.25 v -0.3125 c -0.359375,0.03125 -1.265625,0.03125 -1.6875,0.03125 -0.40625,0 -1.328125,0 -1.6875,-0.03125 V -6.5 h 0.328125 c 0.953125,0 0.953125,0.125 0.953125,0.484375 V -5.46875 C 1.625,-5.3125 0.5625,-4.390625 0.5625,-3.40625 c 0,1.03125 1.109375,1.90625 2.59375,2.0625 v 0.5625 c 0,0.328125 0,0.46875 -0.953125,0.46875 H 1.875 V 0 c 0.359375,-0.03125 1.28125,-0.03125 1.6875,-0.03125 0.40625,0 1.328125,0 1.6875,0.03125 V -0.3125 H 4.921875 c -0.9375,0 -0.9375,-0.125 -0.9375,-0.46875 z M 3.15625,-1.578125 C 1.734375,-1.765625 1.5625,-2.78125 1.5625,-3.40625 c 0,-0.515625 0.09375,-1.625 1.59375,-1.828125 z M 3.984375,-5.25 c 1.375,0.171875 1.640625,1.078125 1.640625,1.84375 0,0.59375 -0.140625,1.65625 -1.640625,1.84375 z m 0,0"
                 id="id-4d51d0c2-de75-4b06-ac65-d25c4fa18cb4" />
            </g>
          </g>
        </g>
      </g>
      <g
         transform="matrix(0.529167,0,0,0.529167,61.308007,84.143791)"
         ns5:version="1.9.0"
         ns5:texconverter="pdflatex"
         ns5:pdfconverter="inkscape"
         ns5:text="$\\Delta T$"
         ns5:preamble="/home/jeff/.config/inkscape/extensions/textext/default_packages.tex"
         ns5:scale="1.5"
         ns5:alignment="middle center"
         ns5:stroke-to-path="0"
         ns5:inkscapeversion="1.3.2"
         id="g2389"
         ns5:jacobian_sqrt="0.529167">
        <defs
           id="id-ed054f7f-bbf8-4355-9003-dbdfdae740b5">
          <g
             id="id-d5b23797-3089-4bba-8b44-3d85e45a2173">
            <symbol
               overflow="visible"
               id="id-777f84b4-deb2-42ab-a4a8-e6610163f405">
              <path
                 style="stroke:none;stroke-width:0"
                 d=""
                 id="id-a59c815d-afab-44e1-87ce-82cd4d3debe3" />
            </symbol>
            <symbol
               overflow="visible"
               id="id-ef121ac7-dc76-47e1-b0d9-5c9bad6e1c4c">
              <path
                 style="stroke:none;stroke-width:0"
                 d="m 4.40625,-6.953125 c -0.0625,-0.140625 -0.09375,-0.1875 -0.265625,-0.1875 -0.15625,0 -0.1875,0.046875 -0.25,0.1875 l -3.375,6.75 C 0.46875,-0.109375 0.46875,-0.09375 0.46875,-0.078125 0.46875,0 0.53125,0 0.6875,0 h 6.921875 c 0.15625,0 0.21875,0 0.21875,-0.078125 0,-0.015625 0,-0.03125 -0.046875,-0.125 z m -0.578125,0.8125 2.6875,5.390625 h -5.375 z m 0,0"
                 id="id-ca9990ee-8aa3-40b8-803e-2aaf03a05b27" />
            </symbol>
            <symbol
               overflow="visible"
               id="id-278a0372-f970-4d7c-a186-ccd8aca8ef11">
              <path
                 style="stroke:none;stroke-width:0"
                 d=""
                 id="id-849940d4-60a5-4105-84a0-893b97461593" />
            </symbol>
            <symbol
               overflow="visible"
               id="id-74e4eb3e-5c3b-41c7-b45d-b79c13dad49d">
              <path
                 style="stroke:none;stroke-width:0"
                 d="m 4.25,-6.046875 c 0.078125,-0.28125 0.109375,-0.34375 0.234375,-0.375 0.09375,-0.015625 0.421875,-0.015625 0.625,-0.015625 1.015625,0 1.453125,0.03125 1.453125,0.8125 0,0.15625 -0.03125,0.546875 -0.078125,0.796875 0,0.046875 -0.03125,0.15625 -0.03125,0.1875 0,0.0625 0.03125,0.140625 0.125,0.140625 0.109375,0 0.125,-0.078125 0.15625,-0.234375 L 7,-6.46875 C 7.015625,-6.515625 7.015625,-6.609375 7.015625,-6.640625 7.015625,-6.75 6.921875,-6.75 6.75,-6.75 H 1.21875 c -0.234375,0 -0.25,0.015625 -0.328125,0.203125 l -0.59375,1.75 c 0,0.015625 -0.0625,0.15625 -0.0625,0.1875 0,0.046875 0.0625,0.109375 0.125,0.109375 0.09375,0 0.109375,-0.0625 0.171875,-0.21875 C 1.0625,-6.265625 1.328125,-6.4375 2.796875,-6.4375 H 3.1875 c 0.28125,0 0.28125,0.03125 0.28125,0.125 0,0.046875 -0.03125,0.171875 -0.046875,0.203125 L 2.09375,-0.78125 C 2,-0.421875 1.96875,-0.3125 0.90625,-0.3125 c -0.359375,0 -0.421875,0 -0.421875,0.1875 C 0.484375,0 0.59375,0 0.65625,0 c 0.265625,0 0.546875,-0.015625 0.8125,-0.015625 0.28125,0 0.578125,-0.015625 0.859375,-0.015625 0.28125,0 0.546875,0.015625 0.828125,0.015625 C 3.4375,-0.015625 3.734375,0 4.015625,0 c 0.09375,0 0.21875,0 0.21875,-0.203125 0,-0.109375 -0.078125,-0.109375 -0.34375,-0.109375 -0.234375,0 -0.375,0 -0.625,-0.015625 -0.296875,-0.03125 -0.375,-0.0625 -0.375,-0.21875 0,-0.015625 0,-0.0625 0.046875,-0.203125 z m 0,0"
                 id="id-28ff04da-ee5d-4613-aae7-72675d54eb93" />
            </symbol>
          </g>
        </defs>
        <g
           id="id-3f881237-790a-4170-8ca8-37e404066dff"
           transform="translate(-149.181,-127.624)">
          <g
             style="fill:#000000;fill-opacity:1"
             id="id-88959ed0-35c2-4bb8-b937-381ead91a88b">
            <g
               transform="translate(148.712,134.765)"
               id="g9955">
              <path
                 style="stroke:none;stroke-width:0"
                 d="m 4.40625,-6.953125 c -0.0625,-0.140625 -0.09375,-0.1875 -0.265625,-0.1875 -0.15625,0 -0.1875,0.046875 -0.25,0.1875 l -3.375,6.75 C 0.46875,-0.109375 0.46875,-0.09375 0.46875,-0.078125 0.46875,0 0.53125,0 0.6875,0 h 6.921875 c 0.15625,0 0.21875,0 0.21875,-0.078125 0,-0.015625 0,-0.03125 -0.046875,-0.125 z m -0.578125,0.8125 2.6875,5.390625 h -5.375 z m 0,0"
                 id="id-c6c32013-c1bc-4f61-9d47-11397b69c316" />
            </g>
          </g>
          <g
             style="fill:#000000;fill-opacity:1"
             id="id-64298079-a87f-4613-9008-ec82293c803a">
            <g
               transform="translate(157.015,134.765)"
               id="g8291">
              <path
                 style="stroke:none;stroke-width:0"
                 d="m 4.25,-6.046875 c 0.078125,-0.28125 0.109375,-0.34375 0.234375,-0.375 0.09375,-0.015625 0.421875,-0.015625 0.625,-0.015625 1.015625,0 1.453125,0.03125 1.453125,0.8125 0,0.15625 -0.03125,0.546875 -0.078125,0.796875 0,0.046875 -0.03125,0.15625 -0.03125,0.1875 0,0.0625 0.03125,0.140625 0.125,0.140625 0.109375,0 0.125,-0.078125 0.15625,-0.234375 L 7,-6.46875 C 7.015625,-6.515625 7.015625,-6.609375 7.015625,-6.640625 7.015625,-6.75 6.921875,-6.75 6.75,-6.75 H 1.21875 c -0.234375,0 -0.25,0.015625 -0.328125,0.203125 l -0.59375,1.75 c 0,0.015625 -0.0625,0.15625 -0.0625,0.1875 0,0.046875 0.0625,0.109375 0.125,0.109375 0.09375,0 0.109375,-0.0625 0.171875,-0.21875 C 1.0625,-6.265625 1.328125,-6.4375 2.796875,-6.4375 H 3.1875 c 0.28125,0 0.28125,0.03125 0.28125,0.125 0,0.046875 -0.03125,0.171875 -0.046875,0.203125 L 2.09375,-0.78125 C 2,-0.421875 1.96875,-0.3125 0.90625,-0.3125 c -0.359375,0 -0.421875,0 -0.421875,0.1875 C 0.484375,0 0.59375,0 0.65625,0 c 0.265625,0 0.546875,-0.015625 0.8125,-0.015625 0.28125,0 0.578125,-0.015625 0.859375,-0.015625 0.28125,0 0.546875,0.015625 0.828125,0.015625 C 3.4375,-0.015625 3.734375,0 4.015625,0 c 0.09375,0 0.21875,0 0.21875,-0.203125 0,-0.109375 -0.078125,-0.109375 -0.34375,-0.109375 -0.234375,0 -0.375,0 -0.625,-0.015625 -0.296875,-0.03125 -0.375,-0.0625 -0.375,-0.21875 0,-0.015625 0,-0.0625 0.046875,-0.203125 z m 0,0"
                 id="id-7a5d49af-f598-42bc-b516-4ded86a75cf1" />
            </g>
          </g>
        </g>
      </g>
      <g
         transform="matrix(0.529167,0,0,0.529167,97.6898,14.5474)"
         ns5:version="1.9.0"
         ns5:texconverter="pdflatex"
         ns5:pdfconverter="inkscape"
         ns5:text="$T$"
         ns5:preamble="/home/jeff/.config/inkscape/extensions/textext/default_packages.tex"
         ns5:scale="1.5"
         ns5:alignment="middle center"
         ns5:stroke-to-path="0"
         ns5:inkscapeversion="1.3.2"
         id="g2313"
         ns5:jacobian_sqrt="0.529167">
        <defs
           id="id-c2dfdb35-b0a0-4827-a4bc-eaa1ac93da31">
          <g
             id="id-e04fb39b-b4b9-4260-ae9e-c853f4473989">
            <symbol
               overflow="visible"
               id="id-885af0e0-75f9-4eb3-9e4c-c020339c9f98">
              <path
                 style="stroke:none"
                 d=""
                 id="id-5b862cb5-5d7a-4df6-a784-2d71af5932e5" />
            </symbol>
            <symbol
               overflow="visible"
               id="id-ac9b4e9c-4b6e-4d03-86c0-af62fa085ff3">
              <path
                 style="stroke:none"
                 d="m 4.25,-6.046875 c 0.078125,-0.28125 0.109375,-0.34375 0.234375,-0.375 0.09375,-0.015625 0.421875,-0.015625 0.625,-0.015625 1.015625,0 1.453125,0.03125 1.453125,0.8125 0,0.15625 -0.03125,0.546875 -0.078125,0.796875 0,0.046875 -0.03125,0.15625 -0.03125,0.1875 0,0.0625 0.03125,0.140625 0.125,0.140625 0.109375,0 0.125,-0.078125 0.15625,-0.234375 L 7,-6.46875 C 7.015625,-6.515625 7.015625,-6.609375 7.015625,-6.640625 7.015625,-6.75 6.921875,-6.75 6.75,-6.75 H 1.21875 c -0.234375,0 -0.25,0.015625 -0.328125,0.203125 l -0.59375,1.75 c 0,0.015625 -0.0625,0.15625 -0.0625,0.1875 0,0.046875 0.0625,0.109375 0.125,0.109375 0.09375,0 0.109375,-0.0625 0.171875,-0.21875 C 1.0625,-6.265625 1.328125,-6.4375 2.796875,-6.4375 H 3.1875 c 0.28125,0 0.28125,0.03125 0.28125,0.125 0,0.046875 -0.03125,0.171875 -0.046875,0.203125 L 2.09375,-0.78125 C 2,-0.421875 1.96875,-0.3125 0.90625,-0.3125 c -0.359375,0 -0.421875,0 -0.421875,0.1875 C 0.484375,0 0.59375,0 0.65625,0 c 0.265625,0 0.546875,-0.015625 0.8125,-0.015625 0.28125,0 0.578125,-0.015625 0.859375,-0.015625 0.28125,0 0.546875,0.015625 0.828125,0.015625 C 3.4375,-0.015625 3.734375,0 4.015625,0 c 0.09375,0 0.21875,0 0.21875,-0.203125 0,-0.109375 -0.078125,-0.109375 -0.34375,-0.109375 -0.234375,0 -0.375,0 -0.625,-0.015625 -0.296875,-0.03125 -0.375,-0.0625 -0.375,-0.21875 0,-0.015625 0,-0.0625 0.046875,-0.203125 z m 0,0"
                 id="id-85c68ad1-feeb-45dc-b55a-a93971b1706d" />
            </symbol>
          </g>
        </defs>
        <g
           id="id-68cda408-2eba-49e4-a532-584932bacd50"
           transform="translate(-148.946,-128.015)">
          <g
             style="fill:#000000;fill-opacity:1"
             id="id-aa4b6044-0837-4325-8080-51668f8c02f3">
            <g
               transform="translate(148.712,134.765)"
               id="g3010">
              <path
                 style="stroke:none"
                 d="m 4.25,-6.046875 c 0.078125,-0.28125 0.109375,-0.34375 0.234375,-0.375 0.09375,-0.015625 0.421875,-0.015625 0.625,-0.015625 1.015625,0 1.453125,0.03125 1.453125,0.8125 0,0.15625 -0.03125,0.546875 -0.078125,0.796875 0,0.046875 -0.03125,0.15625 -0.03125,0.1875 0,0.0625 0.03125,0.140625 0.125,0.140625 0.109375,0 0.125,-0.078125 0.15625,-0.234375 L 7,-6.46875 C 7.015625,-6.515625 7.015625,-6.609375 7.015625,-6.640625 7.015625,-6.75 6.921875,-6.75 6.75,-6.75 H 1.21875 c -0.234375,0 -0.25,0.015625 -0.328125,0.203125 l -0.59375,1.75 c 0,0.015625 -0.0625,0.15625 -0.0625,0.1875 0,0.046875 0.0625,0.109375 0.125,0.109375 0.09375,0 0.109375,-0.0625 0.171875,-0.21875 C 1.0625,-6.265625 1.328125,-6.4375 2.796875,-6.4375 H 3.1875 c 0.28125,0 0.28125,0.03125 0.28125,0.125 0,0.046875 -0.03125,0.171875 -0.046875,0.203125 L 2.09375,-0.78125 C 2,-0.421875 1.96875,-0.3125 0.90625,-0.3125 c -0.359375,0 -0.421875,0 -0.421875,0.1875 C 0.484375,0 0.59375,0 0.65625,0 c 0.265625,0 0.546875,-0.015625 0.8125,-0.015625 0.28125,0 0.578125,-0.015625 0.859375,-0.015625 0.28125,0 0.546875,0.015625 0.828125,0.015625 C 3.4375,-0.015625 3.734375,0 4.015625,0 c 0.09375,0 0.21875,0 0.21875,-0.203125 0,-0.109375 -0.078125,-0.109375 -0.34375,-0.109375 -0.234375,0 -0.375,0 -0.625,-0.015625 -0.296875,-0.03125 -0.375,-0.0625 -0.375,-0.21875 0,-0.015625 0,-0.0625 0.046875,-0.203125 z m 0,0"
                 id="id-072bded2-9e8f-4fa6-8167-28b44c079c4e" />
            </g>
          </g>
        </g>
      </g>
      <g
         transform="matrix(0.529167,0,0,0.529167,154.47784,81.9572)"
         ns5:version="1.9.0"
         ns5:texconverter="pdflatex"
         ns5:pdfconverter="inkscape"
         ns5:text="$t$"
         ns5:preamble="/home/jeff/.config/inkscape/extensions/textext/default_packages.tex"
         ns5:scale="1.5"
         ns5:alignment="middle center"
         ns5:stroke-to-path="0"
         ns5:inkscapeversion="1.3.2"
         id="g2313-9"
         ns5:jacobian_sqrt="0.529167">
        <defs
           id="id-fdc87f59-2841-4bd3-860f-4a3bfb207699">
          <g
             id="id-8798c84f-903f-4b7e-9a3f-d391e9415ff8">
            <symbol
               overflow="visible"
               id="id-2f57d93e-1143-49b6-8f56-c21d730e3270">
              <path
                 style="stroke:none"
                 d=""
                 id="id-742e3257-3626-48d3-a1f6-ba29cd0fd0ee" />
            </symbol>
            <symbol
               overflow="visible"
               id="id-f0f116aa-5de7-46af-90ae-3b62308a03f5">
              <path
                 style="stroke:none"
                 d="m 2.046875,-3.984375 h 0.9375 c 0.203125,0 0.3125,0 0.3125,-0.203125 0,-0.109375 -0.109375,-0.109375 -0.28125,-0.109375 h -0.875 C 2.5,-5.71875 2.546875,-5.90625 2.546875,-5.96875 c 0,-0.171875 -0.125,-0.265625 -0.296875,-0.265625 -0.03125,0 -0.3125,0 -0.390625,0.359375 L 1.46875,-4.296875 h -0.9375 c -0.203125,0 -0.296875,0 -0.296875,0.1875 0,0.125 0.078125,0.125 0.28125,0.125 h 0.875 C 0.671875,-1.15625 0.625,-0.984375 0.625,-0.8125 0.625,-0.265625 1,0.109375 1.546875,0.109375 2.5625,0.109375 3.125,-1.34375 3.125,-1.421875 3.125,-1.53125 3.046875,-1.53125 3.015625,-1.53125 2.921875,-1.53125 2.90625,-1.5 2.859375,-1.390625 2.4375,-0.34375 1.90625,-0.109375 1.5625,-0.109375 c -0.203125,0 -0.3125,-0.125 -0.3125,-0.453125 0,-0.25 0.03125,-0.3125 0.0625,-0.484375 z m 0,0"
                 id="id-fc15c574-8343-43a5-9335-5e709b9fe220" />
            </symbol>
          </g>
        </defs>
        <g
           id="id-395ca1c8-a41f-4e1e-abad-26e48f6952d6"
           transform="translate(-148.946,-128.531)">
          <g
             style="fill:#000000;fill-opacity:1"
             id="id-e3b22d9d-c006-4ba9-ad4d-382abe7d952f">
            <g
               transform="translate(148.712,134.765)"
               id="g9516">
              <path
                 style="stroke:none"
                 d="m 2.046875,-3.984375 h 0.9375 c 0.203125,0 0.3125,0 0.3125,-0.203125 0,-0.109375 -0.109375,-0.109375 -0.28125,-0.109375 h -0.875 C 2.5,-5.71875 2.546875,-5.90625 2.546875,-5.96875 c 0,-0.171875 -0.125,-0.265625 -0.296875,-0.265625 -0.03125,0 -0.3125,0 -0.390625,0.359375 L 1.46875,-4.296875 h -0.9375 c -0.203125,0 -0.296875,0 -0.296875,0.1875 0,0.125 0.078125,0.125 0.28125,0.125 h 0.875 C 0.671875,-1.15625 0.625,-0.984375 0.625,-0.8125 0.625,-0.265625 1,0.109375 1.546875,0.109375 2.5625,0.109375 3.125,-1.34375 3.125,-1.421875 3.125,-1.53125 3.046875,-1.53125 3.015625,-1.53125 2.921875,-1.53125 2.90625,-1.5 2.859375,-1.390625 2.4375,-0.34375 1.90625,-0.109375 1.5625,-0.109375 c -0.203125,0 -0.3125,-0.125 -0.3125,-0.453125 0,-0.25 0.03125,-0.3125 0.0625,-0.484375 z m 0,0"
                 id="id-2be68154-f8e4-429e-94eb-22f8013a1f05" />
            </g>
          </g>
        </g>
      </g>
      <circle
         style="fill:#e400e4;fill-opacity:0.5;stroke:#000000;stroke-width:0.499998;stroke-linejoin:round;stroke-dasharray:none;stroke-dashoffset:0;stroke-opacity:1"
         id="path6-5"
         cx="135.05453"
         cy="22.682718"
         r="7.250001" />
      <circle
         style="fill:none;fill-opacity:0.5;stroke:#000000;stroke-width:0.499998;stroke-linejoin:round;stroke-dasharray:none;stroke-dashoffset:0;stroke-opacity:1"
         id="path6-5-5"
         cx="153.41447"
         cy="40.644115"
         r="7.250001" />
      <g
         id="g12-7"
         transform="translate(59.139538,-137.23925)">
        <path
           style="fill:none;stroke:#000000;stroke-width:0.264583px;stroke-linecap:butt;stroke-linejoin:miter;stroke-opacity:1"
           d="m 89.802744,172.45986 2.036075,3.52659 3.362399,-1.94128 0.877144,-3.27356"
           id="path7-4" />
        <path
           style="fill:none;stroke:#000000;stroke-width:0.264583px;stroke-linecap:butt;stroke-linejoin:miter;stroke-opacity:1"
           d="m 95.163557,173.97184 1.914601,3.31618 4.167292,-1.15881"
           id="path8-5"
           sodipodi:nodetypes="ccc" />
        <path
           style="fill:none;stroke:#000000;stroke-width:0.264583px;stroke-linecap:butt;stroke-linejoin:miter;stroke-opacity:1"
           d="m 97.07619,177.32774 -0.856393,3.1961 -2.722758,0.72956 -1.918414,-1.91841 0.290459,-3.33402"
           id="path9-2" />
        <path
           style="fill:none;stroke:#000000;stroke-width:0.264583px;stroke-linecap:butt;stroke-linejoin:miter;stroke-opacity:1"
           d="m 91.504479,179.27636 -3.446407,1.7391"
           id="path10-5"
           sodipodi:nodetypes="cc" />
        <path
           style="fill:none;stroke:#000000;stroke-width:0.264583px;stroke-linecap:butt;stroke-linejoin:miter;stroke-opacity:1"
           d="m 93.511279,181.20009 -0.656135,3.49918"
           id="path11-4"
           sodipodi:nodetypes="cc" />
        <path
           style="fill:none;stroke:#000000;stroke-width:0.264583px;stroke-linecap:butt;stroke-linejoin:miter;stroke-opacity:1"
           d="m 96.290835,180.54041 2.375748,2.67982"
           id="path12-7"
           sodipodi:nodetypes="cc" />
      </g>
      <circle
         style="fill:none;fill-opacity:0.5;stroke:#000000;stroke-width:0.2;stroke-linejoin:round;stroke-dasharray:none;stroke-dashoffset:0;stroke-opacity:1"
         id="path34"
         cx="154.9613"
         cy="40.062275"
         r="0.69136971" />
      <g
         id="g13-3"
         transform="translate(104.36076,-88.703478)">
        <circle
           style="fill:#e400e4;fill-opacity:0.5;stroke:#000000;stroke-width:0.499998;stroke-linejoin:round;stroke-dasharray:none;stroke-dashoffset:0;stroke-opacity:1"
           id="path6-5-5-0"
           cx="49.053722"
           cy="147.29819"
           r="7.250001" />
        <g
           id="g12-7-7"
           transform="translate(-45.221212,-30.585178)">
          <path
             style="fill:none;stroke:#000000;stroke-width:0.264583px;stroke-linecap:butt;stroke-linejoin:miter;stroke-opacity:1"
             d="m 89.802744,172.45986 2.036075,3.52659 3.362399,-1.94128 0.877144,-3.27356"
             id="path7-4-8" />
          <path
             style="fill:none;stroke:#000000;stroke-width:0.264583px;stroke-linecap:butt;stroke-linejoin:miter;stroke-opacity:1"
             d="m 95.163557,173.97184 1.914601,3.31618 4.167292,-1.15881"
             id="path8-5-6"
             sodipodi:nodetypes="ccc" />
          <path
             style="fill:none;stroke:#000000;stroke-width:0.264583px;stroke-linecap:butt;stroke-linejoin:miter;stroke-opacity:1"
             d="m 97.07619,177.32774 -0.856393,3.1961 -2.722758,0.72956 -1.918414,-1.91841 0.290459,-3.33402"
             id="path9-2-8" />
          <path
             style="fill:none;stroke:#000000;stroke-width:0.264583px;stroke-linecap:butt;stroke-linejoin:miter;stroke-opacity:1"
             d="m 91.504479,179.27636 -3.446407,1.7391"
             id="path10-5-8"
             sodipodi:nodetypes="cc" />
          <path
             style="fill:none;stroke:#000000;stroke-width:0.264583px;stroke-linecap:butt;stroke-linejoin:miter;stroke-opacity:1"
             d="m 93.511279,181.20009 -0.656135,3.49918"
             id="path11-4-4"
             sodipodi:nodetypes="cc" />
          <path
             style="fill:none;stroke:#000000;stroke-width:0.264583px;stroke-linecap:butt;stroke-linejoin:miter;stroke-opacity:1"
             d="m 96.290835,180.54041 2.375748,2.67982"
             id="path12-7-3"
             sodipodi:nodetypes="cc" />
        </g>
      </g>
      <path
         style="fill:none;stroke:#000000;stroke-width:0.264583px;stroke-linecap:butt;stroke-linejoin:miter;stroke-opacity:1;marker-start:url(#Sketch);marker-mid:url(#Tail)"
         d="m 70.307495,74.660985 h 9.536821"
         id="path20" />
      <text
         xml:space="preserve"
         style="font-size:4.23333px;line-height:1.25;font-family:'TeX Gyre Schola Math';-inkscape-font-specification:'TeX Gyre Schola Math';text-align:end;letter-spacing:0px;word-spacing:0px;text-anchor:end;stroke-width:0.264583"
         x="81.403336"
         y="72.862335"
         id="text1"><tspan
           sodipodi:role="line"
           id="tspan1"
           style="font-size:4.23333px;stroke-width:0.264583"
           x="81.403336"
           y="72.862335">ENDO</tspan></text>
      <path
         style="fill:#e400e4;fill-opacity:0.5;stroke:none;stroke-width:0.661456;stroke-linejoin:round;stroke-dasharray:1.05833, 1.05833"
         d="m 146.96307,43.285753 c -1.03553,-2.561084 -0.45781,-5.545621 1.44505,-7.465194 0.23765,-0.239739 0.43857,-0.427938 0.4465,-0.418222 0.008,0.0097 0.4567,0.782701 0.99728,1.717741 l 0.98288,1.700078 -0.11125,1.388316 c -0.0612,0.763574 -0.13148,1.456608 -0.15623,1.540076 -0.0355,0.119687 -0.39805,0.333611 -1.71554,1.012182 -0.9188,0.473234 -1.6889,0.860962 -1.71133,0.861621 -0.0224,5.29e-4 -0.10224,-0.15081 -0.17736,-0.336598 z"
         id="path1" />
      <path
         style="fill:#e400e4;fill-opacity:0.5;stroke:none;stroke-width:0.661456;stroke-linejoin:round;stroke-dasharray:1.05833, 1.05833"
         d="m 151.20256,47.252551 c -1.09329,-0.371232 -2.24229,-1.130988 -2.97733,-1.96872 -0.335,-0.381796 -0.9475,-1.245796 -0.9475,-1.336548 0,-0.0199 0.75284,-0.41171 1.67298,-0.870691 l 1.67299,-0.834514 0.9213,0.919663 0.92131,0.919662 -0.2691,1.427866 c -0.148,0.785326 -0.28889,1.536444 -0.31308,1.669148 -0.0242,0.132705 -0.0789,0.240538 -0.1215,0.239633 -0.0426,-7.93e-4 -0.29466,-0.07538 -0.56007,-0.165499 z"
         id="path2" />
      <path
         style="fill:#e400e4;fill-opacity:0.5;stroke:none;stroke-width:0.661456;stroke-linejoin:round;stroke-dasharray:1.05833, 1.05833"
         d="m 151.76554,42.931876 -0.88299,-0.884695 0.13959,-1.60854 0.13958,-1.608537 1.54172,-0.889206 c 1.26115,-0.727382 1.55625,-0.87375 1.62154,-0.80427 0.0439,0.04672 0.44888,0.728887 0.89997,1.515935 l 0.82017,1.430997 -0.40812,1.534562 -0.40813,1.534562 -1.25714,0.334248 c -0.69143,0.183835 -1.27201,0.333211 -1.29018,0.331944 -0.0182,-0.0013 -0.43037,-0.400418 -0.91601,-0.887 z m 3.5856,-2.150404 c 0.27173,-0.123809 0.44103,-0.462618 0.4024,-0.805317 -0.11215,-0.995056 -1.59127,-0.926759 -1.59127,0.07347 0,0.619313 0.61073,0.995262 1.18887,0.731843 z"
         id="path5" />
      <path
         style="fill:#e400e4;fill-opacity:0.5;stroke:none;stroke-width:0.661456;stroke-linejoin:round;stroke-dasharray:1.05833, 1.05833"
         d="m 150.10875,36.914534 c -0.51312,-0.890416 -0.94162,-1.652532 -0.95223,-1.693587 -0.0538,-0.208415 1.59266,-1.086877 2.45116,-1.307786 0.81631,-0.210055 1.72268,-0.28267 2.4834,-0.198961 0.69832,0.07684 0.84329,0.110638 0.84329,0.196599 0,0.165266 -0.72915,2.743401 -0.79259,2.802466 -0.0418,0.03893 -0.69853,0.427212 -1.45937,0.862862 -0.76083,0.435647 -1.44124,0.82927 -1.51202,0.874715 -0.12134,0.07791 -0.18195,-0.0098 -1.06164,-1.536308 z"
         id="path6" />
      <path
         style="fill:#e400e4;fill-opacity:0.5;stroke:none;stroke-width:0.661456;stroke-linejoin:round;stroke-dasharray:1.05833, 1.05833"
         d="m 156.19798,39.682629 c -0.20427,-0.326658 -1.59159,-2.756408 -1.62799,-2.851259 -0.0216,-0.0564 0.12946,-0.733607 0.33578,-1.504913 l 0.37513,-1.402371 0.42189,0.143619 c 1.61413,0.549462 3.06862,1.802817 3.86904,3.333998 0.14428,0.276014 0.33058,0.702482 0.41398,0.947711 l 0.15165,0.445866 -0.26917,0.0716 c -0.14804,0.03938 -0.98665,0.271606 -1.86359,0.51606 -0.87693,0.244453 -1.62182,0.44446 -1.65531,0.44446 -0.0335,0 -0.10162,-0.06515 -0.15141,-0.144769 z"
         id="path7" />
      <path
         style="fill:#e400e4;fill-opacity:0.5;stroke:none;stroke-width:0.661456;stroke-linejoin:round;stroke-dasharray:1.05833, 1.05833"
         d="m 157.89408,45.885232 c 0,-0.03167 -0.52117,-0.644073 -1.15815,-1.360903 -0.63698,-0.71683 -1.15815,-1.3306 -1.15815,-1.363933 0,-0.06148 0.77413,-2.973657 0.79366,-2.985632 0.006,-0.0036 0.86308,-0.242382 1.90498,-0.530667 1.40721,-0.389366 1.9068,-0.504042 1.94271,-0.445939 0.0843,0.136334 0.15239,0.894818 0.14379,1.600832 -0.0197,1.612432 -0.60267,3.130267 -1.69516,4.413179 -0.40973,0.481155 -0.77368,0.797771 -0.77368,0.673063 z"
         id="path8" />
      <path
         style="fill:#e400e4;fill-opacity:0.5;stroke:none;stroke-width:0.661456;stroke-linejoin:round;stroke-dasharray:1.05833, 1.05833"
         d="m 152.52156,47.565434 c -0.14155,-0.0141 -0.28032,-0.04812 -0.30837,-0.07558 -0.0363,-0.03554 0.50159,-3.211544 0.5645,-3.333041 0.0138,-0.0267 2.42375,-0.661953 2.5112,-0.661953 0.049,0 0.54281,0.513927 1.09736,1.142061 0.55456,0.628134 1.08826,1.218176 1.186,1.311201 l 0.17772,0.16914 -0.49094,0.321807 c -0.62759,0.411396 -0.87558,0.5343 -1.57669,0.781413 -0.94151,0.331848 -2.06365,0.454311 -3.16078,0.344948 z"
         id="path11" />
      <path
         style="fill:#3200b2;fill-opacity:0.5;stroke:none;stroke-width:0.661456;stroke-linejoin:round;stroke-dasharray:1.05833, 1.05833"
         d="m 154.57756,40.441567 c -0.44373,-0.443738 0.081,-1.155816 0.63449,-0.861025 0.51367,0.273579 0.33407,1.018955 -0.24551,1.018955 -0.15952,0 -0.27994,-0.04889 -0.38898,-0.15793 z"
         id="path12" />
      <path
         style="fill:#e400e4;fill-opacity:0.5;stroke:none;stroke-width:1;stroke-linejoin:round;stroke-dasharray:none"
         d="m 133.87251,47.50998 c -2.41461,-0.436253 -4.40758,-2.068555 -5.31122,-4.350049 -0.56446,-1.425157 -0.60776,-3.270639 -0.11091,-4.727403 0.79136,-2.320264 2.72829,-4.055147 5.13572,-4.599985 0.77486,-0.175361 2.09563,-0.186709 2.85008,-0.0245 2.29221,0.492871 4.23928,2.117902 5.0778,4.237934 0.38418,0.971349 0.44783,1.336201 0.45107,2.585678 0.003,1.073107 -0.0101,1.205391 -0.17533,1.801561 -0.85279,3.076762 -3.64486,5.203092 -6.79356,5.173718 -0.3404,-0.0032 -0.84604,-0.04681 -1.12365,-0.09697 z m -0.86648,-8.549767 0.43034,-0.11489 0.14209,-0.589399 0.14209,-0.589397 -0.30225,-0.524015 c -0.16624,-0.288208 -0.35145,-0.533982 -0.41158,-0.546163 -0.13276,-0.0269 -1.08607,0.52206 -1.14161,0.657389 -0.0218,0.05308 -0.064,0.328141 -0.0939,0.611243 l -0.0543,0.514733 0.36411,0.371039 c 0.20026,0.204073 0.39349,0.360534 0.4294,0.347694 0.0359,-0.01283 0.25894,-0.07505 0.49563,-0.138234 z"
         id="path13" />
      <path
         style="fill:#b20032;fill-opacity:0.5;stroke:none;stroke-width:1;stroke-linejoin:round;stroke-dasharray:none"
         d="m 132.29878,38.52142 c -0.18497,-0.190833 -0.20565,-0.251074 -0.20565,-0.598948 0,-0.447088 0.0416,-0.512847 0.49655,-0.785503 l 0.3357,-0.201171 0.22302,0.400249 0.22302,0.400251 -0.10201,0.423571 c -0.10133,0.42081 -0.10383,0.424061 -0.3827,0.498647 -0.37382,0.09998 -0.35357,0.104701 -0.58793,-0.137096 z"
         id="path14" />
      <g
         transform="matrix(0.529166 0 0 0.529166 95.5625 42.6042)"
         ns5:version="1.10.2"
         ns5:texconverter="pdflatex"
         ns5:pdfconverter="inkscape"
         ns5:text="$T_{liq}$"
         ns5:preamble="/home/jeff/.config/inkscape/extensions/textext/default_packages.tex"
         ns5:scale="1.5"
         ns5:alignment="middle center"
         ns5:stroke-to-path="0"
         ns5:inkscapeversion="1.3.2"
         ns5:jacobian_sqrt="0.529166"
         id="g8421-1">
        <defs
           id="id-5ed9f56a-6f31-4d5b-ab56-2a30b0f2b2c7">
          <g
             id="id-33e79475-a6c5-492f-b3fa-390c9ab2423d">
            <g
               id="id-9c0ff403-9cce-4465-9349-cad2051618b4">
              <path
                 d="m 4.25,-6.046875 c 0.078125,-0.28125 0.109375,-0.34375 0.234375,-0.375 0.09375,-0.015625 0.421875,-0.015625 0.625,-0.015625 1.015625,0 1.453125,0.03125 1.453125,0.8125 0,0.15625 -0.03125,0.546875 -0.078125,0.796875 0,0.046875 -0.03125,0.15625 -0.03125,0.1875 0,0.0625 0.03125,0.140625 0.125,0.140625 0.109375,0 0.125,-0.078125 0.15625,-0.234375 L 7,-6.46875 C 7.015625,-6.515625 7.015625,-6.609375 7.015625,-6.640625 7.015625,-6.75 6.921875,-6.75 6.75,-6.75 H 1.21875 c -0.234375,0 -0.25,0.015625 -0.328125,0.203125 l -0.59375,1.75 c 0,0.015625 -0.0625,0.15625 -0.0625,0.1875 0,0.046875 0.0625,0.109375 0.125,0.109375 0.09375,0 0.109375,-0.0625 0.171875,-0.21875 C 1.0625,-6.265625 1.328125,-6.4375 2.796875,-6.4375 H 3.1875 c 0.28125,0 0.28125,0.03125 0.28125,0.125 0,0.046875 -0.03125,0.171875 -0.046875,0.203125 L 2.09375,-0.78125 C 2,-0.421875 1.96875,-0.3125 0.90625,-0.3125 c -0.359375,0 -0.421875,0 -0.421875,0.1875 C 0.484375,0 0.59375,0 0.65625,0 c 0.265625,0 0.546875,-0.015625 0.8125,-0.015625 0.28125,0 0.578125,-0.015625 0.859375,-0.015625 0.28125,0 0.546875,0.015625 0.828125,0.015625 C 3.4375,-0.015625 3.734375,0 4.015625,0 c 0.09375,0 0.21875,0 0.21875,-0.203125 0,-0.109375 -0.078125,-0.109375 -0.34375,-0.109375 -0.234375,0 -0.375,0 -0.625,-0.015625 -0.296875,-0.03125 -0.375,-0.0625 -0.375,-0.21875 0,-0.015625 0,-0.0625 0.046875,-0.203125 z m 0,0"
                 id="id-1ce5c922-70a1-4d62-927f-595d81ac2059" />
            </g>
            <g
               id="id-86b7c0f7-7e45-4ce0-af1f-e493a8bd154d">
              <path
                 d="M 1.96875,-4.625 C 1.96875,-4.640625 2,-4.734375 2,-4.734375 2,-4.78125 1.96875,-4.84375 1.875,-4.84375 c -0.140625,0 -0.71875,0.0625 -0.890625,0.078125 -0.046875,0 -0.140625,0.015625 -0.140625,0.15625 0,0.09375 0.09375,0.09375 0.171875,0.09375 0.34375,0 0.34375,0.0625 0.34375,0.109375 0,0.046875 -0.015625,0.09375 -0.03125,0.15625 l -0.875,3.4375 C 0.4375,-0.734375 0.4375,-0.65625 0.4375,-0.59375 c 0,0.453125 0.390625,0.65625 0.71875,0.65625 0.171875,0 0.390625,-0.046875 0.5625,-0.359375 C 1.875,-0.5625 1.96875,-0.96875 1.96875,-1 c 0,-0.09375 -0.09375,-0.09375 -0.109375,-0.09375 -0.109375,0 -0.125,0.046875 -0.140625,0.171875 C 1.625,-0.578125 1.484375,-0.125 1.1875,-0.125 1,-0.125 0.953125,-0.296875 0.953125,-0.46875 0.953125,-0.546875 0.96875,-0.671875 1,-0.75 Z m 0,0"
                 id="id-237489d2-36da-4f07-bd85-73364ceb99a2" />
            </g>
            <g
               id="id-e7be574c-e6f6-400b-a52b-89607154546c">
              <path
                 d="m 2.265625,-4.359375 c 0,-0.109375 -0.09375,-0.265625 -0.28125,-0.265625 -0.1875,0 -0.390625,0.1875 -0.390625,0.390625 0,0.109375 0.078125,0.265625 0.28125,0.265625 0.1875,0 0.390625,-0.203125 0.390625,-0.390625 z M 0.84375,-0.8125 c -0.03125,0.09375 -0.0625,0.171875 -0.0625,0.296875 0,0.328125 0.265625,0.578125 0.65625,0.578125 0.6875,0 1,-0.953125 1,-1.0625 0,-0.09375 -0.09375,-0.09375 -0.109375,-0.09375 -0.09375,0 -0.109375,0.046875 -0.140625,0.125 -0.15625,0.5625 -0.453125,0.84375 -0.734375,0.84375 -0.140625,0 -0.171875,-0.09375 -0.171875,-0.25 0,-0.15625 0.046875,-0.28125 0.109375,-0.4375 C 1.46875,-1 1.546875,-1.1875 1.609375,-1.375 1.671875,-1.546875 1.9375,-2.171875 1.953125,-2.265625 1.984375,-2.328125 2,-2.40625 2,-2.484375 2,-2.8125 1.71875,-3.078125 1.34375,-3.078125 0.640625,-3.078125 0.328125,-2.125 0.328125,-2 c 0,0.078125 0.09375,0.078125 0.125,0.078125 0.09375,0 0.09375,-0.03125 0.125,-0.109375 C 0.75,-2.625 1.0625,-2.875 1.3125,-2.875 c 0.109375,0 0.171875,0.046875 0.171875,0.234375 0,0.171875 -0.03125,0.265625 -0.203125,0.703125 z m 0,0"
                 id="id-d77816c1-5280-4edd-b7b9-472a89ecacc3" />
            </g>
            <g
               id="id-3207a8df-a57a-44ef-bcb9-34f38bffdc02">
              <path
                 d="m 3.546875,-2.875 c 0,-0.03125 0.015625,-0.0625 0.015625,-0.09375 0,-0.046875 -0.03125,-0.109375 -0.09375,-0.109375 -0.0625,0 -0.359375,0.234375 -0.5,0.46875 -0.0625,-0.140625 -0.296875,-0.46875 -0.75,-0.46875 -0.890625,0 -1.796875,0.984375 -1.796875,1.984375 0,0.6875 0.453125,1.15625 1.0625,1.15625 0.390625,0 0.71875,-0.25 0.875,-0.375 C 2.34375,-0.296875 2.125,0.578125 2.109375,0.703125 2,1.09375 2,1.09375 1.5625,1.09375 c -0.078125,0 -0.171875,0 -0.171875,0.15625 0,0.046875 0.03125,0.109375 0.09375,0.109375 0.234375,0 0.5,-0.03125 0.734375,-0.03125 0.234375,0 0.53125,0.03125 0.75,0.03125 0.0625,0 0.125,-0.03125 0.125,-0.15625 C 3.09375,1.09375 3,1.09375 2.921875,1.09375 c -0.15625,0 -0.34375,0 -0.34375,-0.078125 0,-0.015625 0,-0.03125 0.03125,-0.15625 z M 2.5,-0.875 C 2.453125,-0.765625 2.453125,-0.75 2.375,-0.640625 2.09375,-0.3125 1.765625,-0.125 1.5,-0.125 c -0.265625,0 -0.515625,-0.1875 -0.515625,-0.671875 0,-0.375 0.203125,-1.140625 0.375,-1.421875 0.3125,-0.5625 0.671875,-0.65625 0.859375,-0.65625 0.484375,0 0.625,0.53125 0.625,0.609375 0,0.03125 -0.015625,0.078125 -0.015625,0.09375 z m 0,0"
                 id="id-8669eca6-b88f-488d-974a-077de7a9f417" />
            </g>
          </g>
        </defs>
        <g
           fill="#000000"
           fill-opacity="1"
           id="id-5cad1125-0c6b-4318-81f2-55118705ed02"
           transform="translate(-148.946, -128.015)">
          <g
             transform="translate(148.712, 134.765)"
             id="g1">
            <path
               d="m 4.25,-6.046875 c 0.078125,-0.28125 0.109375,-0.34375 0.234375,-0.375 0.09375,-0.015625 0.421875,-0.015625 0.625,-0.015625 1.015625,0 1.453125,0.03125 1.453125,0.8125 0,0.15625 -0.03125,0.546875 -0.078125,0.796875 0,0.046875 -0.03125,0.15625 -0.03125,0.1875 0,0.0625 0.03125,0.140625 0.125,0.140625 0.109375,0 0.125,-0.078125 0.15625,-0.234375 L 7,-6.46875 C 7.015625,-6.515625 7.015625,-6.609375 7.015625,-6.640625 7.015625,-6.75 6.921875,-6.75 6.75,-6.75 H 1.21875 c -0.234375,0 -0.25,0.015625 -0.328125,0.203125 l -0.59375,1.75 c 0,0.015625 -0.0625,0.15625 -0.0625,0.1875 0,0.046875 0.0625,0.109375 0.125,0.109375 0.09375,0 0.109375,-0.0625 0.171875,-0.21875 C 1.0625,-6.265625 1.328125,-6.4375 2.796875,-6.4375 H 3.1875 c 0.28125,0 0.28125,0.03125 0.28125,0.125 0,0.046875 -0.03125,0.171875 -0.046875,0.203125 L 2.09375,-0.78125 C 2,-0.421875 1.96875,-0.3125 0.90625,-0.3125 c -0.359375,0 -0.421875,0 -0.421875,0.1875 C 0.484375,0 0.59375,0 0.65625,0 c 0.265625,0 0.546875,-0.015625 0.8125,-0.015625 0.28125,0 0.578125,-0.015625 0.859375,-0.015625 0.28125,0 0.546875,0.015625 0.828125,0.015625 C 3.4375,-0.015625 3.734375,0 4.015625,0 c 0.09375,0 0.21875,0 0.21875,-0.203125 0,-0.109375 -0.078125,-0.109375 -0.34375,-0.109375 -0.234375,0 -0.375,0 -0.625,-0.015625 -0.296875,-0.03125 -0.375,-0.0625 -0.375,-0.21875 0,-0.015625 0,-0.0625 0.046875,-0.203125 z m 0,0"
               id="id-175a74f0-a399-4b66-9753-a9c85cfff87d" />
          </g>
        </g>
        <g
           fill="#000000"
           fill-opacity="1"
           id="id-6a40b7ab-2f5e-4915-82dc-21db57549a8c"
           transform="translate(-148.946, -128.015)">
          <g
             transform="translate(154.534, 136.259)"
             id="g2">
            <path
               d="M 1.96875,-4.625 C 1.96875,-4.640625 2,-4.734375 2,-4.734375 2,-4.78125 1.96875,-4.84375 1.875,-4.84375 c -0.140625,0 -0.71875,0.0625 -0.890625,0.078125 -0.046875,0 -0.140625,0.015625 -0.140625,0.15625 0,0.09375 0.09375,0.09375 0.171875,0.09375 0.34375,0 0.34375,0.0625 0.34375,0.109375 0,0.046875 -0.015625,0.09375 -0.03125,0.15625 l -0.875,3.4375 C 0.4375,-0.734375 0.4375,-0.65625 0.4375,-0.59375 c 0,0.453125 0.390625,0.65625 0.71875,0.65625 0.171875,0 0.390625,-0.046875 0.5625,-0.359375 C 1.875,-0.5625 1.96875,-0.96875 1.96875,-1 c 0,-0.09375 -0.09375,-0.09375 -0.109375,-0.09375 -0.109375,0 -0.125,0.046875 -0.140625,0.171875 C 1.625,-0.578125 1.484375,-0.125 1.1875,-0.125 1,-0.125 0.953125,-0.296875 0.953125,-0.46875 0.953125,-0.546875 0.96875,-0.671875 1,-0.75 Z m 0,0"
               id="id-228d52f8-460b-46fb-8852-c6f4138d0e95" />
          </g>
        </g>
        <g
           fill="#000000"
           fill-opacity="1"
           id="id-ad1cc906-d48a-4ebc-9039-e8de37ee0552"
           transform="translate(-148.946, -128.015)">
          <g
             transform="translate(157.095, 136.259)"
             id="g3">
            <path
               d="m 2.265625,-4.359375 c 0,-0.109375 -0.09375,-0.265625 -0.28125,-0.265625 -0.1875,0 -0.390625,0.1875 -0.390625,0.390625 0,0.109375 0.078125,0.265625 0.28125,0.265625 0.1875,0 0.390625,-0.203125 0.390625,-0.390625 z M 0.84375,-0.8125 c -0.03125,0.09375 -0.0625,0.171875 -0.0625,0.296875 0,0.328125 0.265625,0.578125 0.65625,0.578125 0.6875,0 1,-0.953125 1,-1.0625 0,-0.09375 -0.09375,-0.09375 -0.109375,-0.09375 -0.09375,0 -0.109375,0.046875 -0.140625,0.125 -0.15625,0.5625 -0.453125,0.84375 -0.734375,0.84375 -0.140625,0 -0.171875,-0.09375 -0.171875,-0.25 0,-0.15625 0.046875,-0.28125 0.109375,-0.4375 C 1.46875,-1 1.546875,-1.1875 1.609375,-1.375 1.671875,-1.546875 1.9375,-2.171875 1.953125,-2.265625 1.984375,-2.328125 2,-2.40625 2,-2.484375 2,-2.8125 1.71875,-3.078125 1.34375,-3.078125 0.640625,-3.078125 0.328125,-2.125 0.328125,-2 c 0,0.078125 0.09375,0.078125 0.125,0.078125 0.09375,0 0.09375,-0.03125 0.125,-0.109375 C 0.75,-2.625 1.0625,-2.875 1.3125,-2.875 c 0.109375,0 0.171875,0.046875 0.171875,0.234375 0,0.171875 -0.03125,0.265625 -0.203125,0.703125 z m 0,0"
               id="id-42952874-2276-4704-86dc-81eebd23f2a9" />
          </g>
          <g
             transform="translate(159.914, 136.259)"
             id="g4">
            <path
               d="m 3.546875,-2.875 c 0,-0.03125 0.015625,-0.0625 0.015625,-0.09375 0,-0.046875 -0.03125,-0.109375 -0.09375,-0.109375 -0.0625,0 -0.359375,0.234375 -0.5,0.46875 -0.0625,-0.140625 -0.296875,-0.46875 -0.75,-0.46875 -0.890625,0 -1.796875,0.984375 -1.796875,1.984375 0,0.6875 0.453125,1.15625 1.0625,1.15625 0.390625,0 0.71875,-0.25 0.875,-0.375 C 2.34375,-0.296875 2.125,0.578125 2.109375,0.703125 2,1.09375 2,1.09375 1.5625,1.09375 c -0.078125,0 -0.171875,0 -0.171875,0.15625 0,0.046875 0.03125,0.109375 0.09375,0.109375 0.234375,0 0.5,-0.03125 0.734375,-0.03125 0.234375,0 0.53125,0.03125 0.75,0.03125 0.0625,0 0.125,-0.03125 0.125,-0.15625 C 3.09375,1.09375 3,1.09375 2.921875,1.09375 c -0.15625,0 -0.34375,0 -0.34375,-0.078125 0,-0.015625 0,-0.03125 0.03125,-0.15625 z M 2.5,-0.875 C 2.453125,-0.765625 2.453125,-0.75 2.375,-0.640625 2.09375,-0.3125 1.765625,-0.125 1.5,-0.125 c -0.265625,0 -0.515625,-0.1875 -0.515625,-0.671875 0,-0.375 0.203125,-1.140625 0.375,-1.421875 0.3125,-0.5625 0.671875,-0.65625 0.859375,-0.65625 0.484375,0 0.625,0.53125 0.625,0.609375 0,0.03125 -0.015625,0.078125 -0.015625,0.09375 z m 0,0"
               id="id-4d68beb6-1628-48c6-a176-6284ad57594d" />
          </g>
        </g>
      </g>
      <g
         transform="matrix(0.529166 0 0 0.529166 95.1653 54.8249)"
         ns5:version="1.10.2"
         ns5:texconverter="pdflatex"
         ns5:pdfconverter="inkscape"
         ns5:text="$T_{sol}$"
         ns5:preamble="/home/jeff/.config/inkscape/extensions/textext/default_packages.tex"
         ns5:scale="1.5"
         ns5:alignment="middle center"
         ns5:stroke-to-path="0"
         ns5:inkscapeversion="1.3.2"
         ns5:jacobian_sqrt="0.529166"
         id="g8421">
        <defs
           id="id-c2333981-bae8-4cca-828b-bbd6f40ed037">
          <g
             id="id-1a5d8e49-aec6-4fa7-87e5-cb5bcb7c5947">
            <g
               id="id-00f7b238-2e3f-4303-96e1-078cde601ffa">
              <path
                 d="m 4.25,-6.046875 c 0.078125,-0.28125 0.109375,-0.34375 0.234375,-0.375 0.09375,-0.015625 0.421875,-0.015625 0.625,-0.015625 1.015625,0 1.453125,0.03125 1.453125,0.8125 0,0.15625 -0.03125,0.546875 -0.078125,0.796875 0,0.046875 -0.03125,0.15625 -0.03125,0.1875 0,0.0625 0.03125,0.140625 0.125,0.140625 0.109375,0 0.125,-0.078125 0.15625,-0.234375 L 7,-6.46875 C 7.015625,-6.515625 7.015625,-6.609375 7.015625,-6.640625 7.015625,-6.75 6.921875,-6.75 6.75,-6.75 H 1.21875 c -0.234375,0 -0.25,0.015625 -0.328125,0.203125 l -0.59375,1.75 c 0,0.015625 -0.0625,0.15625 -0.0625,0.1875 0,0.046875 0.0625,0.109375 0.125,0.109375 0.09375,0 0.109375,-0.0625 0.171875,-0.21875 C 1.0625,-6.265625 1.328125,-6.4375 2.796875,-6.4375 H 3.1875 c 0.28125,0 0.28125,0.03125 0.28125,0.125 0,0.046875 -0.03125,0.171875 -0.046875,0.203125 L 2.09375,-0.78125 C 2,-0.421875 1.96875,-0.3125 0.90625,-0.3125 c -0.359375,0 -0.421875,0 -0.421875,0.1875 C 0.484375,0 0.59375,0 0.65625,0 c 0.265625,0 0.546875,-0.015625 0.8125,-0.015625 0.28125,0 0.578125,-0.015625 0.859375,-0.015625 0.28125,0 0.546875,0.015625 0.828125,0.015625 C 3.4375,-0.015625 3.734375,0 4.015625,0 c 0.09375,0 0.21875,0 0.21875,-0.203125 0,-0.109375 -0.078125,-0.109375 -0.34375,-0.109375 -0.234375,0 -0.375,0 -0.625,-0.015625 -0.296875,-0.03125 -0.375,-0.0625 -0.375,-0.21875 0,-0.015625 0,-0.0625 0.046875,-0.203125 z m 0,0"
                 id="id-f4b001b6-4d5f-41b7-8704-46ec965be6e4" />
            </g>
            <g
               id="id-58437fde-5c30-4fae-b264-59ff850703cd">
              <path
                 d="m 3,-2.625 c -0.171875,0.046875 -0.296875,0.1875 -0.296875,0.328125 0,0.171875 0.140625,0.234375 0.234375,0.234375 0.078125,0 0.34375,-0.046875 0.34375,-0.40625 0,-0.453125 -0.5,-0.609375 -0.9375,-0.609375 -1.078125,0 -1.28125,0.8125 -1.28125,1.015625 0,0.265625 0.15625,0.4375 0.25,0.515625 0.171875,0.140625 0.296875,0.171875 0.78125,0.25 0.15625,0.03125 0.59375,0.109375 0.59375,0.453125 0,0.125 -0.078125,0.390625 -0.359375,0.5625 C 2.046875,-0.125 1.703125,-0.125 1.625,-0.125 1.34375,-0.125 0.953125,-0.1875 0.78125,-0.421875 1.015625,-0.453125 1.171875,-0.625 1.171875,-0.8125 c 0,-0.171875 -0.125,-0.265625 -0.265625,-0.265625 -0.203125,0 -0.40625,0.171875 -0.40625,0.46875 0,0.421875 0.4375,0.671875 1.109375,0.671875 1.296875,0 1.53125,-0.875 1.53125,-1.140625 0,-0.640625 -0.703125,-0.765625 -0.96875,-0.8125 -0.0625,-0.015625 -0.234375,-0.046875 -0.28125,-0.0625 -0.25,-0.046875 -0.375,-0.1875 -0.375,-0.34375 0,-0.15625 0.125,-0.34375 0.28125,-0.453125 0.1875,-0.109375 0.421875,-0.125 0.546875,-0.125 0.140625,0 0.5,0.015625 0.65625,0.25 z m 0,0"
                 id="id-93c0f01d-bb31-4cfc-a6df-10a3546ccfdd" />
            </g>
            <g
               id="id-946d0355-0947-493f-9d53-26505388fdd6">
              <path
                 d="m 3.703125,-1.859375 c 0,-0.765625 -0.578125,-1.21875 -1.265625,-1.21875 -1.03125,0 -2,0.96875 -2,1.921875 0,0.703125 0.5,1.21875 1.265625,1.21875 1,0 2,-0.90625 2,-1.921875 z m -2,1.734375 c -0.34375,0 -0.6875,-0.21875 -0.6875,-0.78125 0,-0.28125 0.125,-0.96875 0.40625,-1.359375 C 1.71875,-2.703125 2.125,-2.875 2.4375,-2.875 c 0.375,0 0.6875,0.25 0.6875,0.765625 C 3.125,-1.9375 3.046875,-1.25 2.734375,-0.765625 2.46875,-0.34375 2.0625,-0.125 1.703125,-0.125 Z m 0,0"
                 id="id-bcc37cc3-1e12-4d84-b7a6-fb08fb1460d3" />
            </g>
            <g
               id="id-fb19788b-c5f7-492d-89d7-a7160e7d4014">
              <path
                 d="M 1.96875,-4.625 C 1.96875,-4.640625 2,-4.734375 2,-4.734375 2,-4.78125 1.96875,-4.84375 1.875,-4.84375 c -0.140625,0 -0.71875,0.0625 -0.890625,0.078125 -0.046875,0 -0.140625,0.015625 -0.140625,0.15625 0,0.09375 0.09375,0.09375 0.171875,0.09375 0.34375,0 0.34375,0.0625 0.34375,0.109375 0,0.046875 -0.015625,0.09375 -0.03125,0.15625 l -0.875,3.4375 C 0.4375,-0.734375 0.4375,-0.65625 0.4375,-0.59375 c 0,0.453125 0.390625,0.65625 0.71875,0.65625 0.171875,0 0.390625,-0.046875 0.5625,-0.359375 C 1.875,-0.5625 1.96875,-0.96875 1.96875,-1 c 0,-0.09375 -0.09375,-0.09375 -0.109375,-0.09375 -0.109375,0 -0.125,0.046875 -0.140625,0.171875 C 1.625,-0.578125 1.484375,-0.125 1.1875,-0.125 1,-0.125 0.953125,-0.296875 0.953125,-0.46875 0.953125,-0.546875 0.96875,-0.671875 1,-0.75 Z m 0,0"
                 id="id-ada0e2d1-c0d1-4ff9-b8ea-d37ddaaa7d56" />
            </g>
          </g>
        </defs>
        <g
           fill="#000000"
           fill-opacity="1"
           id="id-8b18e58f-0479-4da8-954a-b78d67c2519b"
           transform="translate(-148.946, -128.015)">
          <g
             transform="translate(148.712, 134.765)"
             id="g5">
            <path
               d="m 4.25,-6.046875 c 0.078125,-0.28125 0.109375,-0.34375 0.234375,-0.375 0.09375,-0.015625 0.421875,-0.015625 0.625,-0.015625 1.015625,0 1.453125,0.03125 1.453125,0.8125 0,0.15625 -0.03125,0.546875 -0.078125,0.796875 0,0.046875 -0.03125,0.15625 -0.03125,0.1875 0,0.0625 0.03125,0.140625 0.125,0.140625 0.109375,0 0.125,-0.078125 0.15625,-0.234375 L 7,-6.46875 C 7.015625,-6.515625 7.015625,-6.609375 7.015625,-6.640625 7.015625,-6.75 6.921875,-6.75 6.75,-6.75 H 1.21875 c -0.234375,0 -0.25,0.015625 -0.328125,0.203125 l -0.59375,1.75 c 0,0.015625 -0.0625,0.15625 -0.0625,0.1875 0,0.046875 0.0625,0.109375 0.125,0.109375 0.09375,0 0.109375,-0.0625 0.171875,-0.21875 C 1.0625,-6.265625 1.328125,-6.4375 2.796875,-6.4375 H 3.1875 c 0.28125,0 0.28125,0.03125 0.28125,0.125 0,0.046875 -0.03125,0.171875 -0.046875,0.203125 L 2.09375,-0.78125 C 2,-0.421875 1.96875,-0.3125 0.90625,-0.3125 c -0.359375,0 -0.421875,0 -0.421875,0.1875 C 0.484375,0 0.59375,0 0.65625,0 c 0.265625,0 0.546875,-0.015625 0.8125,-0.015625 0.28125,0 0.578125,-0.015625 0.859375,-0.015625 0.28125,0 0.546875,0.015625 0.828125,0.015625 C 3.4375,-0.015625 3.734375,0 4.015625,0 c 0.09375,0 0.21875,0 0.21875,-0.203125 0,-0.109375 -0.078125,-0.109375 -0.34375,-0.109375 -0.234375,0 -0.375,0 -0.625,-0.015625 -0.296875,-0.03125 -0.375,-0.0625 -0.375,-0.21875 0,-0.015625 0,-0.0625 0.046875,-0.203125 z m 0,0"
               id="id-131d9b02-6815-4515-aab7-2a864cfbc5be" />
          </g>
        </g>
        <g
           fill="#000000"
           fill-opacity="1"
           id="id-27683012-dad0-4805-b068-0789b31bcdf1"
           transform="translate(-148.946, -128.015)">
          <g
             transform="translate(154.534, 136.259)"
             id="g6">
            <path
               d="m 3,-2.625 c -0.171875,0.046875 -0.296875,0.1875 -0.296875,0.328125 0,0.171875 0.140625,0.234375 0.234375,0.234375 0.078125,0 0.34375,-0.046875 0.34375,-0.40625 0,-0.453125 -0.5,-0.609375 -0.9375,-0.609375 -1.078125,0 -1.28125,0.8125 -1.28125,1.015625 0,0.265625 0.15625,0.4375 0.25,0.515625 0.171875,0.140625 0.296875,0.171875 0.78125,0.25 0.15625,0.03125 0.59375,0.109375 0.59375,0.453125 0,0.125 -0.078125,0.390625 -0.359375,0.5625 C 2.046875,-0.125 1.703125,-0.125 1.625,-0.125 1.34375,-0.125 0.953125,-0.1875 0.78125,-0.421875 1.015625,-0.453125 1.171875,-0.625 1.171875,-0.8125 c 0,-0.171875 -0.125,-0.265625 -0.265625,-0.265625 -0.203125,0 -0.40625,0.171875 -0.40625,0.46875 0,0.421875 0.4375,0.671875 1.109375,0.671875 1.296875,0 1.53125,-0.875 1.53125,-1.140625 0,-0.640625 -0.703125,-0.765625 -0.96875,-0.8125 -0.0625,-0.015625 -0.234375,-0.046875 -0.28125,-0.0625 -0.25,-0.046875 -0.375,-0.1875 -0.375,-0.34375 0,-0.15625 0.125,-0.34375 0.28125,-0.453125 0.1875,-0.109375 0.421875,-0.125 0.546875,-0.125 0.140625,0 0.5,0.015625 0.65625,0.25 z m 0,0"
               id="id-e42cf3a4-a9dd-450a-b22f-54661e041fcd" />
          </g>
          <g
             transform="translate(158.294, 136.259)"
             id="g7">
            <path
               d="m 3.703125,-1.859375 c 0,-0.765625 -0.578125,-1.21875 -1.265625,-1.21875 -1.03125,0 -2,0.96875 -2,1.921875 0,0.703125 0.5,1.21875 1.265625,1.21875 1,0 2,-0.90625 2,-1.921875 z m -2,1.734375 c -0.34375,0 -0.6875,-0.21875 -0.6875,-0.78125 0,-0.28125 0.125,-0.96875 0.40625,-1.359375 C 1.71875,-2.703125 2.125,-2.875 2.4375,-2.875 c 0.375,0 0.6875,0.25 0.6875,0.765625 C 3.125,-1.9375 3.046875,-1.25 2.734375,-0.765625 2.46875,-0.34375 2.0625,-0.125 1.703125,-0.125 Z m 0,0"
               id="id-248fdb81-4261-4d51-a609-bf75731979a8" />
          </g>
          <g
             transform="translate(162.227, 136.259)"
             id="g8">
            <path
               d="M 1.96875,-4.625 C 1.96875,-4.640625 2,-4.734375 2,-4.734375 2,-4.78125 1.96875,-4.84375 1.875,-4.84375 c -0.140625,0 -0.71875,0.0625 -0.890625,0.078125 -0.046875,0 -0.140625,0.015625 -0.140625,0.15625 0,0.09375 0.09375,0.09375 0.171875,0.09375 0.34375,0 0.34375,0.0625 0.34375,0.109375 0,0.046875 -0.015625,0.09375 -0.03125,0.15625 l -0.875,3.4375 C 0.4375,-0.734375 0.4375,-0.65625 0.4375,-0.59375 c 0,0.453125 0.390625,0.65625 0.71875,0.65625 0.171875,0 0.390625,-0.046875 0.5625,-0.359375 C 1.875,-0.5625 1.96875,-0.96875 1.96875,-1 c 0,-0.09375 -0.09375,-0.09375 -0.109375,-0.09375 -0.109375,0 -0.125,0.046875 -0.140625,0.171875 C 1.625,-0.578125 1.484375,-0.125 1.1875,-0.125 1,-0.125 0.953125,-0.296875 0.953125,-0.46875 0.953125,-0.546875 0.96875,-0.671875 1,-0.75 Z m 0,0"
               id="id-d3f63848-4daf-41e6-bdb8-cdbbfe369a88" />
          </g>
        </g>
      </g>
    </g>
  </g>
</svg>
