<?xml version="1.0" encoding="UTF-8" standalone="no"?>
<!-- Created with Inkscape (http://www.inkscape.org/) -->

<svg
   width="210mm"
   height="297mm"
   viewBox="0 0 210 297"
   version="1.1"
   id="svg1"
   inkscape:version="1.3.2 (1:1.3.2+202311252150+091e20ef0f)"
   sodipodi:docname="Fig03.svg"
   xmlns:inkscape="http://www.inkscape.org/namespaces/inkscape"
   xmlns:sodipodi="http://sodipodi.sourceforge.net/DTD/sodipodi-0.dtd"
   xmlns="http://www.w3.org/2000/svg"
   xmlns:svg="http://www.w3.org/2000/svg"
   xmlns:ns5="http://www.iki.fi/pav/software/textext/">
  <sodipodi:namedview
     id="namedview1"
     pagecolor="#ffffff"
     bordercolor="#666666"
     borderopacity="1.0"
     inkscape:showpageshadow="2"
     inkscape:pageopacity="0.0"
     inkscape:pagecheckerboard="0"
     inkscape:deskcolor="#d1d1d1"
     inkscape:document-units="mm"
     inkscape:zoom="2.0560856"
     inkscape:cx="519.19044"
     inkscape:cy="251.20549"
     inkscape:window-width="1452"
     inkscape:window-height="1237"
     inkscape:window-x="814"
     inkscape:window-y="296"
     inkscape:window-maximized="0"
     inkscape:current-layer="layer1"
     showgrid="false" />
  <defs
     id="defs1">
    <marker
       style="overflow:visible"
       id="marker33"
       refX="0"
       refY="0"
       orient="auto"
       inkscape:stockid="Dot"
       markerWidth="1"
       markerHeight="1"
       viewBox="0 0 1 1"
       inkscape:isstock="true"
       inkscape:collect="always"
       preserveAspectRatio="xMidYMid">
      <path
         transform="scale(0.5)"
         style="fill:context-stroke;fill-rule:evenodd;stroke:none"
         d="M 5,0 C 5,2.76 2.76,5 0,5 -2.76,5 -5,2.76 -5,0 c 0,-2.76 2.3,-5 5,-5 2.76,0 5,2.24 5,5 z"
         sodipodi:nodetypes="sssss"
         id="path33" />
    </marker>
    <marker
       style="overflow:visible"
       id="marker32"
       refX="0"
       refY="0"
       orient="auto"
       inkscape:stockid="Dot"
       markerWidth="1"
       markerHeight="1"
       viewBox="0 0 1 1"
       inkscape:isstock="true"
       inkscape:collect="always"
       preserveAspectRatio="xMidYMid">
      <path
         transform="scale(0.5)"
         style="fill:context-stroke;fill-rule:evenodd;stroke:none"
         d="M 5,0 C 5,2.76 2.76,5 0,5 -2.76,5 -5,2.76 -5,0 c 0,-2.76 2.3,-5 5,-5 2.76,0 5,2.24 5,5 z"
         sodipodi:nodetypes="sssss"
         id="path32" />
    </marker>
    <marker
       style="overflow:visible"
       id="Dot"
       refX="0"
       refY="0"
       orient="auto"
       inkscape:stockid="Dot"
       markerWidth="1"
       markerHeight="1"
       viewBox="0 0 1 1"
       inkscape:isstock="true"
       inkscape:collect="always"
       preserveAspectRatio="xMidYMid">
      <path
         transform="scale(0.5)"
         style="fill:context-stroke;fill-rule:evenodd;stroke:none"
         d="M 5,0 C 5,2.76 2.76,5 0,5 -2.76,5 -5,2.76 -5,0 c 0,-2.76 2.3,-5 5,-5 2.76,0 5,2.24 5,5 z"
         sodipodi:nodetypes="sssss"
         id="path17" />
    </marker>
    <marker
       style="overflow:visible"
       id="marker30"
       refX="0"
       refY="0"
       orient="auto-start-reverse"
       inkscape:stockid="Triangle arrow"
       markerWidth="1"
       markerHeight="1"
       viewBox="0 0 1 1"
       inkscape:isstock="true"
       inkscape:collect="always"
       preserveAspectRatio="xMidYMid">
      <path
         transform="scale(0.5)"
         style="fill:context-stroke;fill-rule:evenodd;stroke:context-stroke;stroke-width:1pt"
         d="M 5.77,0 -2.88,5 V -5 Z"
         id="path30" />
    </marker>
    <marker
       style="overflow:visible"
       id="Triangle"
       refX="0"
       refY="0"
       orient="auto-start-reverse"
       inkscape:stockid="Triangle arrow"
       markerWidth="1"
       markerHeight="1"
       viewBox="0 0 1 1"
       inkscape:isstock="true"
       inkscape:collect="always"
       preserveAspectRatio="xMidYMid">
      <path
         transform="scale(0.5)"
         style="fill:context-stroke;fill-rule:evenodd;stroke:context-stroke;stroke-width:1pt"
         d="M 5.77,0 -2.88,5 V -5 Z"
         id="path135" />
    </marker>
    <marker
       style="overflow:visible"
       id="marker30-7"
       refX="0"
       refY="0"
       orient="auto-start-reverse"
       inkscape:stockid="Triangle arrow"
       markerWidth="1"
       markerHeight="1"
       viewBox="0 0 1 1"
       inkscape:isstock="true"
       inkscape:collect="always"
       preserveAspectRatio="xMidYMid">
      <path
         transform="scale(0.5)"
         style="fill:context-stroke;fill-rule:evenodd;stroke:context-stroke;stroke-width:1pt"
         d="M 5.77,0 -2.88,5 V -5 Z"
         id="path30-5" />
    </marker>
    <marker
       style="overflow:visible"
       id="Triangle-3"
       refX="0"
       refY="0"
       orient="auto-start-reverse"
       inkscape:stockid="Triangle arrow"
       markerWidth="1"
       markerHeight="1"
       viewBox="0 0 1 1"
       inkscape:isstock="true"
       inkscape:collect="always"
       preserveAspectRatio="xMidYMid">
      <path
         transform="scale(0.5)"
         style="fill:context-stroke;fill-rule:evenodd;stroke:context-stroke;stroke-width:1pt"
         d="M 5.77,0 -2.88,5 V -5 Z"
         id="path135-5" />
    </marker>
    <g
       id="id-6c7edcfa-f317-40e9-a5a4-4c08dc02d709-6">
      <symbol
         overflow="visible"
         id="id-2340882e-19af-4375-8d17-254782431bae-0">
        <path
           style="stroke:none;stroke-width:0"
           d=""
           id="id-35f2d27b-d39d-480d-9083-bf7d3711d635-6" />
      </symbol>
      <symbol
         overflow="visible"
         id="id-6be08364-cada-4e14-961c-b9d4fabe5f4a-2">
        <path
           style="stroke:none;stroke-width:0"
           d="m 4.25,-6.046875 c 0.078125,-0.28125 0.109375,-0.34375 0.234375,-0.375 0.09375,-0.015625 0.421875,-0.015625 0.625,-0.015625 1.015625,0 1.453125,0.03125 1.453125,0.8125 0,0.15625 -0.03125,0.546875 -0.078125,0.796875 0,0.046875 -0.03125,0.15625 -0.03125,0.1875 0,0.0625 0.03125,0.140625 0.125,0.140625 0.109375,0 0.125,-0.078125 0.15625,-0.234375 L 7,-6.46875 C 7.015625,-6.515625 7.015625,-6.609375 7.015625,-6.640625 7.015625,-6.75 6.921875,-6.75 6.75,-6.75 H 1.21875 c -0.234375,0 -0.25,0.015625 -0.328125,0.203125 l -0.59375,1.75 c 0,0.015625 -0.0625,0.15625 -0.0625,0.1875 0,0.046875 0.0625,0.109375 0.125,0.109375 0.09375,0 0.109375,-0.0625 0.171875,-0.21875 C 1.0625,-6.265625 1.328125,-6.4375 2.796875,-6.4375 H 3.1875 c 0.28125,0 0.28125,0.03125 0.28125,0.125 0,0.046875 -0.03125,0.171875 -0.046875,0.203125 L 2.09375,-0.78125 C 2,-0.421875 1.96875,-0.3125 0.90625,-0.3125 c -0.359375,0 -0.421875,0 -0.421875,0.1875 C 0.484375,0 0.59375,0 0.65625,0 c 0.265625,0 0.546875,-0.015625 0.8125,-0.015625 0.28125,0 0.578125,-0.015625 0.859375,-0.015625 0.28125,0 0.546875,0.015625 0.828125,0.015625 C 3.4375,-0.015625 3.734375,0 4.015625,0 c 0.09375,0 0.21875,0 0.21875,-0.203125 0,-0.109375 -0.078125,-0.109375 -0.34375,-0.109375 -0.234375,0 -0.375,0 -0.625,-0.015625 -0.296875,-0.03125 -0.375,-0.0625 -0.375,-0.21875 0,-0.015625 0,-0.0625 0.046875,-0.203125 z m 0,0"
           id="id-b4cf63ce-9f70-45c7-99c1-ab9d9a45d4cb-6" />
      </symbol>
    </g>
    <g
       id="id-867bd73c-caf7-4b53-acf5-afe4cad5983b-4">
      <symbol
         overflow="visible"
         id="id-179d4988-e72b-4b49-a691-40eddcb97914-7">
        <path
           style="stroke:none"
           d=""
           id="id-f8bc4bfa-5217-4de0-b49f-1baae3d1d79c-8" />
      </symbol>
      <symbol
         overflow="visible"
         id="id-197a1356-ac65-48cd-ab53-f4a2bedabc05-4">
        <path
           style="stroke:none"
           d="m 4.25,-6.046875 c 0.078125,-0.28125 0.109375,-0.34375 0.234375,-0.375 0.09375,-0.015625 0.421875,-0.015625 0.625,-0.015625 1.015625,0 1.453125,0.03125 1.453125,0.8125 0,0.15625 -0.03125,0.546875 -0.078125,0.796875 0,0.046875 -0.03125,0.15625 -0.03125,0.1875 0,0.0625 0.03125,0.140625 0.125,0.140625 0.109375,0 0.125,-0.078125 0.15625,-0.234375 L 7,-6.46875 C 7.015625,-6.515625 7.015625,-6.609375 7.015625,-6.640625 7.015625,-6.75 6.921875,-6.75 6.75,-6.75 H 1.21875 c -0.234375,0 -0.25,0.015625 -0.328125,0.203125 l -0.59375,1.75 c 0,0.015625 -0.0625,0.15625 -0.0625,0.1875 0,0.046875 0.0625,0.109375 0.125,0.109375 0.09375,0 0.109375,-0.0625 0.171875,-0.21875 C 1.0625,-6.265625 1.328125,-6.4375 2.796875,-6.4375 H 3.1875 c 0.28125,0 0.28125,0.03125 0.28125,0.125 0,0.046875 -0.03125,0.171875 -0.046875,0.203125 L 2.09375,-0.78125 C 2,-0.421875 1.96875,-0.3125 0.90625,-0.3125 c -0.359375,0 -0.421875,0 -0.421875,0.1875 C 0.484375,0 0.59375,0 0.65625,0 c 0.265625,0 0.546875,-0.015625 0.8125,-0.015625 0.28125,0 0.578125,-0.015625 0.859375,-0.015625 0.28125,0 0.546875,0.015625 0.828125,0.015625 C 3.4375,-0.015625 3.734375,0 4.015625,0 c 0.09375,0 0.21875,0 0.21875,-0.203125 0,-0.109375 -0.078125,-0.109375 -0.34375,-0.109375 -0.234375,0 -0.375,0 -0.625,-0.015625 -0.296875,-0.03125 -0.375,-0.0625 -0.375,-0.21875 0,-0.015625 0,-0.0625 0.046875,-0.203125 z m 0,0"
           id="id-7310b51c-29f0-4082-a3b3-1156344b67b3-5" />
      </symbol>
      <symbol
         overflow="visible"
         id="id-5af5a348-022e-4f29-86e0-176a18f3a878-0">
        <path
           style="stroke:none"
           d=""
           id="id-8ee71151-9864-4139-bef7-d02bfb1b607b-3" />
      </symbol>
      <symbol
         overflow="visible"
         id="id-613f4d48-e337-4559-a53d-994c1ec99e97-6">
        <path
           style="stroke:none"
           d="M 1.96875,-4.625 C 1.96875,-4.640625 2,-4.734375 2,-4.734375 2,-4.78125 1.96875,-4.84375 1.875,-4.84375 c -0.140625,0 -0.71875,0.0625 -0.890625,0.078125 -0.046875,0 -0.140625,0.015625 -0.140625,0.15625 0,0.09375 0.09375,0.09375 0.171875,0.09375 0.34375,0 0.34375,0.0625 0.34375,0.109375 0,0.046875 -0.015625,0.09375 -0.03125,0.15625 l -0.875,3.4375 C 0.4375,-0.734375 0.4375,-0.65625 0.4375,-0.59375 c 0,0.453125 0.390625,0.65625 0.71875,0.65625 0.171875,0 0.390625,-0.046875 0.5625,-0.359375 C 1.875,-0.5625 1.96875,-0.96875 1.96875,-1 c 0,-0.09375 -0.09375,-0.09375 -0.109375,-0.09375 -0.109375,0 -0.125,0.046875 -0.140625,0.171875 C 1.625,-0.578125 1.484375,-0.125 1.1875,-0.125 1,-0.125 0.953125,-0.296875 0.953125,-0.46875 0.953125,-0.546875 0.96875,-0.671875 1,-0.75 Z m 0,0"
           id="id-dc76a34b-2249-4881-8cd2-67e04ccfa654-1" />
      </symbol>
      <symbol
         overflow="visible"
         id="id-de6cb750-0a88-4860-a499-972b1629e018-0">
        <path
           style="stroke:none"
           d="m 2.265625,-4.359375 c 0,-0.109375 -0.09375,-0.265625 -0.28125,-0.265625 -0.1875,0 -0.390625,0.1875 -0.390625,0.390625 0,0.109375 0.078125,0.265625 0.28125,0.265625 0.1875,0 0.390625,-0.203125 0.390625,-0.390625 z M 0.84375,-0.8125 c -0.03125,0.09375 -0.0625,0.171875 -0.0625,0.296875 0,0.328125 0.265625,0.578125 0.65625,0.578125 0.6875,0 1,-0.953125 1,-1.0625 0,-0.09375 -0.09375,-0.09375 -0.109375,-0.09375 -0.09375,0 -0.109375,0.046875 -0.140625,0.125 -0.15625,0.5625 -0.453125,0.84375 -0.734375,0.84375 -0.140625,0 -0.171875,-0.09375 -0.171875,-0.25 0,-0.15625 0.046875,-0.28125 0.109375,-0.4375 C 1.46875,-1 1.546875,-1.1875 1.609375,-1.375 1.671875,-1.546875 1.9375,-2.171875 1.953125,-2.265625 1.984375,-2.328125 2,-2.40625 2,-2.484375 2,-2.8125 1.71875,-3.078125 1.34375,-3.078125 0.640625,-3.078125 0.328125,-2.125 0.328125,-2 c 0,0.078125 0.09375,0.078125 0.125,0.078125 0.09375,0 0.09375,-0.03125 0.125,-0.109375 C 0.75,-2.625 1.0625,-2.875 1.3125,-2.875 c 0.109375,0 0.171875,0.046875 0.171875,0.234375 0,0.171875 -0.03125,0.265625 -0.203125,0.703125 z m 0,0"
           id="id-4483a0ac-c588-4018-8e00-b60222cb9303-6" />
      </symbol>
      <symbol
         overflow="visible"
         id="id-63e8745f-9d9c-45e0-8880-77b06f629423-3">
        <path
           style="stroke:none"
           d="m 3.546875,-2.875 c 0,-0.03125 0.015625,-0.0625 0.015625,-0.09375 0,-0.046875 -0.03125,-0.109375 -0.09375,-0.109375 -0.0625,0 -0.359375,0.234375 -0.5,0.46875 -0.0625,-0.140625 -0.296875,-0.46875 -0.75,-0.46875 -0.890625,0 -1.796875,0.984375 -1.796875,1.984375 0,0.6875 0.453125,1.15625 1.0625,1.15625 0.390625,0 0.71875,-0.25 0.875,-0.375 C 2.34375,-0.296875 2.125,0.578125 2.109375,0.703125 2,1.09375 2,1.09375 1.5625,1.09375 c -0.078125,0 -0.171875,0 -0.171875,0.15625 0,0.046875 0.03125,0.109375 0.09375,0.109375 0.234375,0 0.5,-0.03125 0.734375,-0.03125 0.234375,0 0.53125,0.03125 0.75,0.03125 0.0625,0 0.125,-0.03125 0.125,-0.15625 C 3.09375,1.09375 3,1.09375 2.921875,1.09375 c -0.15625,0 -0.34375,0 -0.34375,-0.078125 0,-0.015625 0,-0.03125 0.03125,-0.15625 z M 2.5,-0.875 C 2.453125,-0.765625 2.453125,-0.75 2.375,-0.640625 2.09375,-0.3125 1.765625,-0.125 1.5,-0.125 c -0.265625,0 -0.515625,-0.1875 -0.515625,-0.671875 0,-0.375 0.203125,-1.140625 0.375,-1.421875 0.3125,-0.5625 0.671875,-0.65625 0.859375,-0.65625 0.484375,0 0.625,0.53125 0.625,0.609375 0,0.03125 -0.015625,0.078125 -0.015625,0.09375 z m 0,0"
           id="id-321ea166-50fa-4925-909e-47e6dd94d53a-2" />
      </symbol>
    </g>
    <marker
       style="overflow:visible"
       id="Sketch"
       refX="0"
       refY="0"
       orient="auto-start-reverse"
       inkscape:stockid="Sketched arrow"
       markerWidth="1"
       markerHeight="1"
       viewBox="0 0 1 1"
       inkscape:isstock="true"
       inkscape:collect="always"
       preserveAspectRatio="xMidYMid">
      <path
         style="fill:none;stroke:context-stroke;stroke-width:0.4;stroke-linecap:round"
         d="m -4.5421538,-3.2452189 3.83900644,2.60235235 0.56348102,0.59255887 L -2.4921466,1.1808717 -4.4106004,2.139946 -4.5795251,2.8245356 -4.703996,3.0734773 -4.3128019,2.6822832 -3.9749524,2.3088707 0.66603196,-0.12720162 0.02589622,-0.32279868 -1.7613224,-0.60366199 -3.580874,-2.0472634 -4.3186004,-2.392437 l -1.2937699,-0.2549423 2.1825172,0.042166 0.6996091,1.0554873 1.4406512,0.1145833 1.20879971,0.91674665 1.53333299,0.47138389 -1.85995289,1.23785256 -2.03832621,0.9224332 -1.5469949,0.9779853"
         sodipodi:nodetypes="ccc"
         id="path9" />
    </marker>
    <marker
       style="overflow:visible"
       id="Tail"
       refX="0"
       refY="0"
       orient="auto-start-reverse"
       inkscape:stockid="Arrow tail"
       markerWidth="1"
       markerHeight="1"
       viewBox="0 0 1 1"
       inkscape:isstock="true"
       inkscape:collect="always"
       preserveAspectRatio="xMidYMid">
      <path
         style="fill:none;fill-rule:evenodd;stroke:context-stroke;stroke-width:1;stroke-linecap:round"
         d="m -3.0000001,-3 -3.1102256,3 3.1102256,3 M -4.0952644e-8,-3 -3.0000001,0 -4.0952644e-8,3 M 3,3 -4.0952644e-8,0 3,-3"
         sodipodi:nodetypes="ccccccccc"
         id="path10" />
    </marker>
  </defs>
  <g
     inkscape:label="Layer 1"
     inkscape:groupmode="layer"
     id="layer1">
    <g
       id="g14"
       inkscape:export-filename="Fig03.png"
       inkscape:export-xdpi="500"
       inkscape:export-ydpi="500">
      <circle
         style="fill:none;fill-opacity:0.5;stroke:#000000;stroke-width:0.499998;stroke-linejoin:round;stroke-dasharray:none;stroke-dashoffset:0;stroke-opacity:1"
         id="path6-3"
         cx="135.05453"
         cy="40.644119"
         r="7.250001" />
      <g
         id="g12-1"
         transform="matrix(0.3016781,0,0,0.30855704,104.26483,-16.989773)"
         style="stroke-width:3.27763">
        <path
           style="fill:none;stroke:#000000;stroke-width:0.867206px;stroke-linecap:butt;stroke-linejoin:miter;stroke-opacity:1"
           d="m 91.838819,175.98645 3.362399,-1.94128"
           id="path7-8"
           sodipodi:nodetypes="cc" />
        <path
           style="fill:none;stroke:#000000;stroke-width:0.867206px;stroke-linecap:butt;stroke-linejoin:miter;stroke-opacity:1"
           d="m 95.163557,173.97184 1.914601,3.31618"
           id="path8-9"
           sodipodi:nodetypes="cc" />
        <path
           style="fill:none;stroke:#000000;stroke-width:0.867206px;stroke-linecap:butt;stroke-linejoin:miter;stroke-opacity:1"
           d="m 97.07619,177.32774 -0.856393,3.1961 -2.722758,0.72956 -1.918414,-1.91841 0.290459,-3.33402"
           id="path9-6" />
      </g>
      <path
         style="fill:none;stroke:#000000;stroke-width:0.5;stroke-linecap:butt;stroke-linejoin:miter;stroke-dasharray:none;stroke-opacity:1;marker-start:url(#marker30);marker-end:url(#Triangle)"
         d="m 106.3359,21.373285 v 62.035737 h 44.57591"
         id="path29"
         sodipodi:nodetypes="ccc" />
      <path
         style="fill:none;stroke:#000000;stroke-width:0.5;stroke-linecap:butt;stroke-linejoin:miter;stroke-dasharray:none;stroke-opacity:1;marker-start:url(#marker30-7);marker-end:url(#Triangle-3)"
         d="m 91.24485,21.373282 v 62.03574 H 71.492267"
         id="path29-9"
         sodipodi:nodetypes="ccc" />
      <path
         style="fill:none;stroke:#000000;stroke-width:0.4;stroke-linecap:butt;stroke-linejoin:miter;stroke-dasharray:none;stroke-opacity:1;marker-start:url(#marker33);marker-mid:url(#marker32);marker-end:url(#Dot)"
         d="m 115.0589,22.666382 8.41214,22.476625 20.80609,11.699374 2.61276,22.197161"
         id="path31"
         sodipodi:nodetypes="cccc" />
      <path
         style="fill:none;stroke:#000000;stroke-width:0.264583px;stroke-linecap:butt;stroke-linejoin:miter;stroke-dasharray:1.05833, 1.05833;stroke-dashoffset:0;stroke-opacity:1"
         d="M 123.07703,45.191593 H 106.41377"
         id="path3"
         sodipodi:nodetypes="cc" />
      <path
         style="fill:none;stroke:#000000;stroke-width:0.264583px;stroke-linecap:butt;stroke-linejoin:miter;stroke-dasharray:1.05833, 1.05833;stroke-dashoffset:0;stroke-opacity:1"
         d="M 91.211205,45.137797 H 71.371158"
         id="path3-5"
         sodipodi:nodetypes="cc" />
      <path
         style="fill:none;stroke:#000000;stroke-width:0.264583px;stroke-linecap:butt;stroke-linejoin:miter;stroke-dasharray:1.05833, 1.05833;stroke-dashoffset:0;stroke-opacity:1"
         d="M 143.9368,56.863061 H 106.32851"
         id="path3-6"
         sodipodi:nodetypes="cc" />
      <path
         style="fill:none;stroke:#000000;stroke-width:0.264583px;stroke-linecap:butt;stroke-linejoin:miter;stroke-dasharray:1.05833, 1.05833;stroke-dashoffset:0;stroke-opacity:1"
         d="M 91.077773,56.797839 H 86.196768"
         id="path3-7"
         sodipodi:nodetypes="cc" />
      <path
         style="fill:none;stroke:#000000;stroke-width:0.264583px;stroke-linecap:butt;stroke-linejoin:miter;stroke-opacity:1"
         d="m 86.283288,83.126357 c 0,0 0,-21.713863 0,-26.106458 0,-4.392595 -15.052182,-11.978679 -15.052182,-11.978679 0,0 14.644866,1.298887 14.933618,-8.864978 0.288752,-10.163865 -0.02767,-15.469337 -0.02767,-15.469337"
         id="path4"
         sodipodi:nodetypes="czczc" />
      <g
         transform="matrix(0.529167,0,0,0.529167,61.411625,79.083727)"
         ns5:version="1.9.0"
         ns5:texconverter="pdflatex"
         ns5:pdfconverter="inkscape"
         ns5:text="$\\Delta \\Phi$"
         ns5:preamble="/home/jeff/.config/inkscape/extensions/textext/default_packages.tex"
         ns5:scale="1.5"
         ns5:alignment="middle center"
         ns5:stroke-to-path="0"
         ns5:inkscapeversion="1.3.2"
         id="g5836"
         ns5:jacobian_sqrt="0.529167">
        <defs
           id="id-898d5bb3-8e5e-4a4c-b8d6-f683be746c50">
          <g
             id="id-8c9580d5-0205-4c19-ac09-08323595a716">
            <symbol
               overflow="visible"
               id="id-4b87189d-861f-4193-8447-c89b2155de9f">
              <path
                 style="stroke:none"
                 d=""
                 id="id-affaf4ff-5ea2-4181-95ef-3f4f819ca58e" />
            </symbol>
            <symbol
               overflow="visible"
               id="id-2923cf8a-c4d8-4aa6-b200-44578d239bb9">
              <path
                 style="stroke:none"
                 d="m 4.40625,-6.953125 c -0.0625,-0.140625 -0.09375,-0.1875 -0.265625,-0.1875 -0.15625,0 -0.1875,0.046875 -0.25,0.1875 l -3.375,6.75 C 0.46875,-0.109375 0.46875,-0.09375 0.46875,-0.078125 0.46875,0 0.53125,0 0.6875,0 h 6.921875 c 0.15625,0 0.21875,0 0.21875,-0.078125 0,-0.015625 0,-0.03125 -0.046875,-0.125 z m -0.578125,0.8125 2.6875,5.390625 h -5.375 z m 0,0"
                 id="id-40191032-fc20-463e-9e34-c2c1c834e5cf" />
            </symbol>
            <symbol
               overflow="visible"
               id="id-5675ef62-a75f-4a16-a7ef-a3b1d145df69">
              <path
                 style="stroke:none"
                 d="M 3.984375,-1.34375 C 5.515625,-1.46875 6.625,-2.390625 6.625,-3.40625 6.625,-4.4375 5.5,-5.34375 3.984375,-5.46875 v -0.546875 c 0,-0.34375 0,-0.484375 0.9375,-0.484375 H 5.25 v -0.3125 c -0.359375,0.03125 -1.265625,0.03125 -1.6875,0.03125 -0.40625,0 -1.328125,0 -1.6875,-0.03125 V -6.5 h 0.328125 c 0.953125,0 0.953125,0.125 0.953125,0.484375 V -5.46875 C 1.625,-5.3125 0.5625,-4.390625 0.5625,-3.40625 c 0,1.03125 1.109375,1.90625 2.59375,2.0625 v 0.5625 c 0,0.328125 0,0.46875 -0.953125,0.46875 H 1.875 V 0 c 0.359375,-0.03125 1.28125,-0.03125 1.6875,-0.03125 0.40625,0 1.328125,0 1.6875,0.03125 V -0.3125 H 4.921875 c -0.9375,0 -0.9375,-0.125 -0.9375,-0.46875 z M 3.15625,-1.578125 C 1.734375,-1.765625 1.5625,-2.78125 1.5625,-3.40625 c 0,-0.515625 0.09375,-1.625 1.59375,-1.828125 z M 3.984375,-5.25 c 1.375,0.171875 1.640625,1.078125 1.640625,1.84375 0,0.59375 -0.140625,1.65625 -1.640625,1.84375 z m 0,0"
                 id="id-613d28c6-b4b1-4825-a73e-a3b36df36306" />
            </symbol>
          </g>
        </defs>
        <g
           id="id-379e263b-3895-41a3-bcce-16166ed8f235"
           transform="translate(-149.181,-127.624)">
          <g
             style="fill:#000000;fill-opacity:1"
             id="id-5912d75b-e5bf-4f2e-aaee-00f93097009c">
            <g
               transform="translate(148.712,134.765)"
               id="g2720">
              <path
                 style="stroke:none"
                 d="m 4.40625,-6.953125 c -0.0625,-0.140625 -0.09375,-0.1875 -0.265625,-0.1875 -0.15625,0 -0.1875,0.046875 -0.25,0.1875 l -3.375,6.75 C 0.46875,-0.109375 0.46875,-0.09375 0.46875,-0.078125 0.46875,0 0.53125,0 0.6875,0 h 6.921875 c 0.15625,0 0.21875,0 0.21875,-0.078125 0,-0.015625 0,-0.03125 -0.046875,-0.125 z m -0.578125,0.8125 2.6875,5.390625 h -5.375 z m 0,0"
                 id="id-532c18b8-2048-488e-bdad-36ef26307b67" />
            </g>
            <g
               transform="translate(157.014,134.765)"
               id="g3797">
              <path
                 style="stroke:none"
                 d="M 3.984375,-1.34375 C 5.515625,-1.46875 6.625,-2.390625 6.625,-3.40625 6.625,-4.4375 5.5,-5.34375 3.984375,-5.46875 v -0.546875 c 0,-0.34375 0,-0.484375 0.9375,-0.484375 H 5.25 v -0.3125 c -0.359375,0.03125 -1.265625,0.03125 -1.6875,0.03125 -0.40625,0 -1.328125,0 -1.6875,-0.03125 V -6.5 h 0.328125 c 0.953125,0 0.953125,0.125 0.953125,0.484375 V -5.46875 C 1.625,-5.3125 0.5625,-4.390625 0.5625,-3.40625 c 0,1.03125 1.109375,1.90625 2.59375,2.0625 v 0.5625 c 0,0.328125 0,0.46875 -0.953125,0.46875 H 1.875 V 0 c 0.359375,-0.03125 1.28125,-0.03125 1.6875,-0.03125 0.40625,0 1.328125,0 1.6875,0.03125 V -0.3125 H 4.921875 c -0.9375,0 -0.9375,-0.125 -0.9375,-0.46875 z M 3.15625,-1.578125 C 1.734375,-1.765625 1.5625,-2.78125 1.5625,-3.40625 c 0,-0.515625 0.09375,-1.625 1.59375,-1.828125 z M 3.984375,-5.25 c 1.375,0.171875 1.640625,1.078125 1.640625,1.84375 0,0.59375 -0.140625,1.65625 -1.640625,1.84375 z m 0,0"
                 id="id-4d51d0c2-de75-4b06-ac65-d25c4fa18cb4" />
            </g>
          </g>
        </g>
      </g>
      <g
         transform="matrix(0.529167,0,0,0.529167,61.308007,84.143791)"
         ns5:version="1.9.0"
         ns5:texconverter="pdflatex"
         ns5:pdfconverter="inkscape"
         ns5:text="$\\Delta T$"
         ns5:preamble="/home/jeff/.config/inkscape/extensions/textext/default_packages.tex"
         ns5:scale="1.5"
         ns5:alignment="middle center"
         ns5:stroke-to-path="0"
         ns5:inkscapeversion="1.3.2"
         id="g2389"
         ns5:jacobian_sqrt="0.529167">
        <defs
           id="id-ed054f7f-bbf8-4355-9003-dbdfdae740b5">
          <g
             id="id-d5b23797-3089-4bba-8b44-3d85e45a2173">
            <symbol
               overflow="visible"
               id="id-777f84b4-deb2-42ab-a4a8-e6610163f405">
              <path
                 style="stroke:none;stroke-width:0"
                 d=""
                 id="id-a59c815d-afab-44e1-87ce-82cd4d3debe3" />
            </symbol>
            <symbol
               overflow="visible"
               id="id-ef121ac7-dc76-47e1-b0d9-5c9bad6e1c4c">
              <path
                 style="stroke:none;stroke-width:0"
                 d="m 4.40625,-6.953125 c -0.0625,-0.140625 -0.09375,-0.1875 -0.265625,-0.1875 -0.15625,0 -0.1875,0.046875 -0.25,0.1875 l -3.375,6.75 C 0.46875,-0.109375 0.46875,-0.09375 0.46875,-0.078125 0.46875,0 0.53125,0 0.6875,0 h 6.921875 c 0.15625,0 0.21875,0 0.21875,-0.078125 0,-0.015625 0,-0.03125 -0.046875,-0.125 z m -0.578125,0.8125 2.6875,5.390625 h -5.375 z m 0,0"
                 id="id-ca9990ee-8aa3-40b8-803e-2aaf03a05b27" />
            </symbol>
            <symbol
               overflow="visible"
               id="id-278a0372-f970-4d7c-a186-ccd8aca8ef11">
              <path
                 style="stroke:none;stroke-width:0"
                 d=""
                 id="id-849940d4-60a5-4105-84a0-893b97461593" />
            </symbol>
            <symbol
               overflow="visible"
               id="id-74e4eb3e-5c3b-41c7-b45d-b79c13dad49d">
              <path
                 style="stroke:none;stroke-width:0"
                 d="m 4.25,-6.046875 c 0.078125,-0.28125 0.109375,-0.34375 0.234375,-0.375 0.09375,-0.015625 0.421875,-0.015625 0.625,-0.015625 1.015625,0 1.453125,0.03125 1.453125,0.8125 0,0.15625 -0.03125,0.546875 -0.078125,0.796875 0,0.046875 -0.03125,0.15625 -0.03125,0.1875 0,0.0625 0.03125,0.140625 0.125,0.140625 0.109375,0 0.125,-0.078125 0.15625,-0.234375 L 7,-6.46875 C 7.015625,-6.515625 7.015625,-6.609375 7.015625,-6.640625 7.015625,-6.75 6.921875,-6.75 6.75,-6.75 H 1.21875 c -0.234375,0 -0.25,0.015625 -0.328125,0.203125 l -0.59375,1.75 c 0,0.015625 -0.0625,0.15625 -0.0625,0.1875 0,0.046875 0.0625,0.109375 0.125,0.109375 0.09375,0 0.109375,-0.0625 0.171875,-0.21875 C 1.0625,-6.265625 1.328125,-6.4375 2.796875,-6.4375 H 3.1875 c 0.28125,0 0.28125,0.03125 0.28125,0.125 0,0.046875 -0.03125,0.171875 -0.046875,0.203125 L 2.09375,-0.78125 C 2,-0.421875 1.96875,-0.3125 0.90625,-0.3125 c -0.359375,0 -0.421875,0 -0.421875,0.1875 C 0.484375,0 0.59375,0 0.65625,0 c 0.265625,0 0.546875,-0.015625 0.8125,-0.015625 0.28125,0 0.578125,-0.015625 0.859375,-0.015625 0.28125,0 0.546875,0.015625 0.828125,0.015625 C 3.4375,-0.015625 3.734375,0 4.015625,0 c 0.09375,0 0.21875,0 0.21875,-0.203125 0,-0.109375 -0.078125,-0.109375 -0.34375,-0.109375 -0.234375,0 -0.375,0 -0.625,-0.015625 -0.296875,-0.03125 -0.375,-0.0625 -0.375,-0.21875 0,-0.015625 0,-0.0625 0.046875,-0.203125 z m 0,0"
                 id="id-28ff04da-ee5d-4613-aae7-72675d54eb93" />
            </symbol>
          </g>
        </defs>
        <g
           id="id-3f881237-790a-4170-8ca8-37e404066dff"
           transform="translate(-149.181,-127.624)">
          <g
             style="fill:#000000;fill-opacity:1"
             id="id-88959ed0-35c2-4bb8-b937-381ead91a88b">
            <g
               transform="translate(148.712,134.765)"
               id="g9955">
              <path
                 style="stroke:none;stroke-width:0"
                 d="m 4.40625,-6.953125 c -0.0625,-0.140625 -0.09375,-0.1875 -0.265625,-0.1875 -0.15625,0 -0.1875,0.046875 -0.25,0.1875 l -3.375,6.75 C 0.46875,-0.109375 0.46875,-0.09375 0.46875,-0.078125 0.46875,0 0.53125,0 0.6875,0 h 6.921875 c 0.15625,0 0.21875,0 0.21875,-0.078125 0,-0.015625 0,-0.03125 -0.046875,-0.125 z m -0.578125,0.8125 2.6875,5.390625 h -5.375 z m 0,0"
                 id="id-c6c32013-c1bc-4f61-9d47-11397b69c316" />
            </g>
          </g>
          <g
             style="fill:#000000;fill-opacity:1"
             id="id-64298079-a87f-4613-9008-ec82293c803a">
            <g
               transform="translate(157.015,134.765)"
               id="g8291">
              <path
                 style="stroke:none;stroke-width:0"
                 d="m 4.25,-6.046875 c 0.078125,-0.28125 0.109375,-0.34375 0.234375,-0.375 0.09375,-0.015625 0.421875,-0.015625 0.625,-0.015625 1.015625,0 1.453125,0.03125 1.453125,0.8125 0,0.15625 -0.03125,0.546875 -0.078125,0.796875 0,0.046875 -0.03125,0.15625 -0.03125,0.1875 0,0.0625 0.03125,0.140625 0.125,0.140625 0.109375,0 0.125,-0.078125 0.15625,-0.234375 L 7,-6.46875 C 7.015625,-6.515625 7.015625,-6.609375 7.015625,-6.640625 7.015625,-6.75 6.921875,-6.75 6.75,-6.75 H 1.21875 c -0.234375,0 -0.25,0.015625 -0.328125,0.203125 l -0.59375,1.75 c 0,0.015625 -0.0625,0.15625 -0.0625,0.1875 0,0.046875 0.0625,0.109375 0.125,0.109375 0.09375,0 0.109375,-0.0625 0.171875,-0.21875 C 1.0625,-6.265625 1.328125,-6.4375 2.796875,-6.4375 H 3.1875 c 0.28125,0 0.28125,0.03125 0.28125,0.125 0,0.046875 -0.03125,0.171875 -0.046875,0.203125 L 2.09375,-0.78125 C 2,-0.421875 1.96875,-0.3125 0.90625,-0.3125 c -0.359375,0 -0.421875,0 -0.421875,0.1875 C 0.484375,0 0.59375,0 0.65625,0 c 0.265625,0 0.546875,-0.015625 0.8125,-0.015625 0.28125,0 0.578125,-0.015625 0.859375,-0.015625 0.28125,0 0.546875,0.015625 0.828125,0.015625 C 3.4375,-0.015625 3.734375,0 4.015625,0 c 0.09375,0 0.21875,0 0.21875,-0.203125 0,-0.109375 -0.078125,-0.109375 -0.34375,-0.109375 -0.234375,0 -0.375,0 -0.625,-0.015625 -0.296875,-0.03125 -0.375,-0.0625 -0.375,-0.21875 0,-0.015625 0,-0.0625 0.046875,-0.203125 z m 0,0"
                 id="id-7a5d49af-f598-42bc-b516-4ded86a75cf1" />
            </g>
          </g>
        </g>
      </g>
      <g
         transform="matrix(0.529167,0,0,0.529167,97.6898,14.5474)"
         ns5:version="1.9.0"
         ns5:texconverter="pdflatex"
         ns5:pdfconverter="inkscape"
         ns5:text="$T$"
         ns5:preamble="/home/jeff/.config/inkscape/extensions/textext/default_packages.tex"
         ns5:scale="1.5"
         ns5:alignment="middle center"
         ns5:stroke-to-path="0"
         ns5:inkscapeversion="1.3.2"
         id="g2313"
         ns5:jacobian_sqrt="0.529167">
        <defs
           id="id-c2dfdb35-b0a0-4827-a4bc-eaa1ac93da31">
          <g
             id="id-e04fb39b-b4b9-4260-ae9e-c853f4473989">
            <symbol
               overflow="visible"
               id="id-885af0e0-75f9-4eb3-9e4c-c020339c9f98">
              <path
                 style="stroke:none"
                 d=""
                 id="id-5b862cb5-5d7a-4df6-a784-2d71af5932e5" />
            </symbol>
            <symbol
               overflow="visible"
               id="id-ac9b4e9c-4b6e-4d03-86c0-af62fa085ff3">
              <path
                 style="stroke:none"
                 d="m 4.25,-6.046875 c 0.078125,-0.28125 0.109375,-0.34375 0.234375,-0.375 0.09375,-0.015625 0.421875,-0.015625 0.625,-0.015625 1.015625,0 1.453125,0.03125 1.453125,0.8125 0,0.15625 -0.03125,0.546875 -0.078125,0.796875 0,0.046875 -0.03125,0.15625 -0.03125,0.1875 0,0.0625 0.03125,0.140625 0.125,0.140625 0.109375,0 0.125,-0.078125 0.15625,-0.234375 L 7,-6.46875 C 7.015625,-6.515625 7.015625,-6.609375 7.015625,-6.640625 7.015625,-6.75 6.921875,-6.75 6.75,-6.75 H 1.21875 c -0.234375,0 -0.25,0.015625 -0.328125,0.203125 l -0.59375,1.75 c 0,0.015625 -0.0625,0.15625 -0.0625,0.1875 0,0.046875 0.0625,0.109375 0.125,0.109375 0.09375,0 0.109375,-0.0625 0.171875,-0.21875 C 1.0625,-6.265625 1.328125,-6.4375 2.796875,-6.4375 H 3.1875 c 0.28125,0 0.28125,0.03125 0.28125,0.125 0,0.046875 -0.03125,0.171875 -0.046875,0.203125 L 2.09375,-0.78125 C 2,-0.421875 1.96875,-0.3125 0.90625,-0.3125 c -0.359375,0 -0.421875,0 -0.421875,0.1875 C 0.484375,0 0.59375,0 0.65625,0 c 0.265625,0 0.546875,-0.015625 0.8125,-0.015625 0.28125,0 0.578125,-0.015625 0.859375,-0.015625 0.28125,0 0.546875,0.015625 0.828125,0.015625 C 3.4375,-0.015625 3.734375,0 4.015625,0 c 0.09375,0 0.21875,0 0.21875,-0.203125 0,-0.109375 -0.078125,-0.109375 -0.34375,-0.109375 -0.234375,0 -0.375,0 -0.625,-0.015625 -0.296875,-0.03125 -0.375,-0.0625 -0.375,-0.21875 0,-0.015625 0,-0.0625 0.046875,-0.203125 z m 0,0"
                 id="id-85c68ad1-feeb-45dc-b55a-a93971b1706d" />
            </symbol>
          </g>
        </defs>
        <g
           id="id-68cda408-2eba-49e4-a532-584932bacd50"
           transform="translate(-148.946,-128.015)">
          <g
             style="fill:#000000;fill-opacity:1"
             id="id-aa4b6044-0837-4325-8080-51668f8c02f3">
            <g
               transform="translate(148.712,134.765)"
               id="g3010">
              <path
                 style="stroke:none"
                 d="m 4.25,-6.046875 c 0.078125,-0.28125 0.109375,-0.34375 0.234375,-0.375 0.09375,-0.015625 0.421875,-0.015625 0.625,-0.015625 1.015625,0 1.453125,0.03125 1.453125,0.8125 0,0.15625 -0.03125,0.546875 -0.078125,0.796875 0,0.046875 -0.03125,0.15625 -0.03125,0.1875 0,0.0625 0.03125,0.140625 0.125,0.140625 0.109375,0 0.125,-0.078125 0.15625,-0.234375 L 7,-6.46875 C 7.015625,-6.515625 7.015625,-6.609375 7.015625,-6.640625 7.015625,-6.75 6.921875,-6.75 6.75,-6.75 H 1.21875 c -0.234375,0 -0.25,0.015625 -0.328125,0.203125 l -0.59375,1.75 c 0,0.015625 -0.0625,0.15625 -0.0625,0.1875 0,0.046875 0.0625,0.109375 0.125,0.109375 0.09375,0 0.109375,-0.0625 0.171875,-0.21875 C 1.0625,-6.265625 1.328125,-6.4375 2.796875,-6.4375 H 3.1875 c 0.28125,0 0.28125,0.03125 0.28125,0.125 0,0.046875 -0.03125,0.171875 -0.046875,0.203125 L 2.09375,-0.78125 C 2,-0.421875 1.96875,-0.3125 0.90625,-0.3125 c -0.359375,0 -0.421875,0 -0.421875,0.1875 C 0.484375,0 0.59375,0 0.65625,0 c 0.265625,0 0.546875,-0.015625 0.8125,-0.015625 0.28125,0 0.578125,-0.015625 0.859375,-0.015625 0.28125,0 0.546875,0.015625 0.828125,0.015625 C 3.4375,-0.015625 3.734375,0 4.015625,0 c 0.09375,0 0.21875,0 0.21875,-0.203125 0,-0.109375 -0.078125,-0.109375 -0.34375,-0.109375 -0.234375,0 -0.375,0 -0.625,-0.015625 -0.296875,-0.03125 -0.375,-0.0625 -0.375,-0.21875 0,-0.015625 0,-0.0625 0.046875,-0.203125 z m 0,0"
                 id="id-072bded2-9e8f-4fa6-8167-28b44c079c4e" />
            </g>
          </g>
        </g>
      </g>
      <g
         transform="matrix(0.529167,0,0,0.529167,154.47784,81.9572)"
         ns5:version="1.9.0"
         ns5:texconverter="pdflatex"
         ns5:pdfconverter="inkscape"
         ns5:text="$t$"
         ns5:preamble="/home/jeff/.config/inkscape/extensions/textext/default_packages.tex"
         ns5:scale="1.5"
         ns5:alignment="middle center"
         ns5:stroke-to-path="0"
         ns5:inkscapeversion="1.3.2"
         id="g2313-9"
         ns5:jacobian_sqrt="0.529167">
        <defs
           id="id-fdc87f59-2841-4bd3-860f-4a3bfb207699">
          <g
             id="id-8798c84f-903f-4b7e-9a3f-d391e9415ff8">
            <symbol
               overflow="visible"
               id="id-2f57d93e-1143-49b6-8f56-c21d730e3270">
              <path
                 style="stroke:none"
                 d=""
                 id="id-742e3257-3626-48d3-a1f6-ba29cd0fd0ee" />
            </symbol>
            <symbol
               overflow="visible"
               id="id-f0f116aa-5de7-46af-90ae-3b62308a03f5">
              <path
                 style="stroke:none"
                 d="m 2.046875,-3.984375 h 0.9375 c 0.203125,0 0.3125,0 0.3125,-0.203125 0,-0.109375 -0.109375,-0.109375 -0.28125,-0.109375 h -0.875 C 2.5,-5.71875 2.546875,-5.90625 2.546875,-5.96875 c 0,-0.171875 -0.125,-0.265625 -0.296875,-0.265625 -0.03125,0 -0.3125,0 -0.390625,0.359375 L 1.46875,-4.296875 h -0.9375 c -0.203125,0 -0.296875,0 -0.296875,0.1875 0,0.125 0.078125,0.125 0.28125,0.125 h 0.875 C 0.671875,-1.15625 0.625,-0.984375 0.625,-0.8125 0.625,-0.265625 1,0.109375 1.546875,0.109375 2.5625,0.109375 3.125,-1.34375 3.125,-1.421875 3.125,-1.53125 3.046875,-1.53125 3.015625,-1.53125 2.921875,-1.53125 2.90625,-1.5 2.859375,-1.390625 2.4375,-0.34375 1.90625,-0.109375 1.5625,-0.109375 c -0.203125,0 -0.3125,-0.125 -0.3125,-0.453125 0,-0.25 0.03125,-0.3125 0.0625,-0.484375 z m 0,0"
                 id="id-fc15c574-8343-43a5-9335-5e709b9fe220" />
            </symbol>
          </g>
        </defs>
        <g
           id="id-395ca1c8-a41f-4e1e-abad-26e48f6952d6"
           transform="translate(-148.946,-128.531)">
          <g
             style="fill:#000000;fill-opacity:1"
             id="id-e3b22d9d-c006-4ba9-ad4d-382abe7d952f">
            <g
               transform="translate(148.712,134.765)"
               id="g9516">
              <path
                 style="stroke:none"
                 d="m 2.046875,-3.984375 h 0.9375 c 0.203125,0 0.3125,0 0.3125,-0.203125 0,-0.109375 -0.109375,-0.109375 -0.28125,-0.109375 h -0.875 C 2.5,-5.71875 2.546875,-5.90625 2.546875,-5.96875 c 0,-0.171875 -0.125,-0.265625 -0.296875,-0.265625 -0.03125,0 -0.3125,0 -0.390625,0.359375 L 1.46875,-4.296875 h -0.9375 c -0.203125,0 -0.296875,0 -0.296875,0.1875 0,0.125 0.078125,0.125 0.28125,0.125 h 0.875 C 0.671875,-1.15625 0.625,-0.984375 0.625,-0.8125 0.625,-0.265625 1,0.109375 1.546875,0.109375 2.5625,0.109375 3.125,-1.34375 3.125,-1.421875 3.125,-1.53125 3.046875,-1.53125 3.015625,-1.53125 2.921875,-1.53125 2.90625,-1.5 2.859375,-1.390625 2.4375,-0.34375 1.90625,-0.109375 1.5625,-0.109375 c -0.203125,0 -0.3125,-0.125 -0.3125,-0.453125 0,-0.25 0.03125,-0.3125 0.0625,-0.484375 z m 0,0"
                 id="id-2be68154-f8e4-429e-94eb-22f8013a1f05" />
            </g>
          </g>
        </g>
      </g>
      <circle
         style="fill:#e400e4;fill-opacity:0.5;stroke:#000000;stroke-width:0.499998;stroke-linejoin:round;stroke-dasharray:none;stroke-dashoffset:0;stroke-opacity:1"
         id="path6-5"
         cx="135.05453"
         cy="22.682718"
         r="7.250001" />
      <g
         transform="matrix(0.529166,0,0,0.529166,95.3637,54.481839)"
         ns5:version="1.9.0"
         ns5:texconverter="pdflatex"
         ns5:pdfconverter="inkscape"
         ns5:text="$T_{liq}$"
         ns5:preamble="/home/jeff/.config/inkscape/extensions/textext/default_packages.tex"
         ns5:scale="1.5"
         ns5:alignment="middle center"
         ns5:stroke-to-path="0"
         ns5:inkscapeversion="1.3.2"
         id="g8421"
         ns5:jacobian_sqrt="0.529166">
        <defs
           id="id-716a3393-8a76-4860-b163-dcc3a856bc04">
          <g
             id="id-867bd73c-caf7-4b53-acf5-afe4cad5983b">
            <symbol
               overflow="visible"
               id="id-179d4988-e72b-4b49-a691-40eddcb97914">
              <path
                 style="stroke:none"
                 d=""
                 id="id-f8bc4bfa-5217-4de0-b49f-1baae3d1d79c" />
            </symbol>
            <symbol
               overflow="visible"
               id="id-197a1356-ac65-48cd-ab53-f4a2bedabc05">
              <path
                 style="stroke:none"
                 d="m 4.25,-6.046875 c 0.078125,-0.28125 0.109375,-0.34375 0.234375,-0.375 0.09375,-0.015625 0.421875,-0.015625 0.625,-0.015625 1.015625,0 1.453125,0.03125 1.453125,0.8125 0,0.15625 -0.03125,0.546875 -0.078125,0.796875 0,0.046875 -0.03125,0.15625 -0.03125,0.1875 0,0.0625 0.03125,0.140625 0.125,0.140625 0.109375,0 0.125,-0.078125 0.15625,-0.234375 L 7,-6.46875 C 7.015625,-6.515625 7.015625,-6.609375 7.015625,-6.640625 7.015625,-6.75 6.921875,-6.75 6.75,-6.75 H 1.21875 c -0.234375,0 -0.25,0.015625 -0.328125,0.203125 l -0.59375,1.75 c 0,0.015625 -0.0625,0.15625 -0.0625,0.1875 0,0.046875 0.0625,0.109375 0.125,0.109375 0.09375,0 0.109375,-0.0625 0.171875,-0.21875 C 1.0625,-6.265625 1.328125,-6.4375 2.796875,-6.4375 H 3.1875 c 0.28125,0 0.28125,0.03125 0.28125,0.125 0,0.046875 -0.03125,0.171875 -0.046875,0.203125 L 2.09375,-0.78125 C 2,-0.421875 1.96875,-0.3125 0.90625,-0.3125 c -0.359375,0 -0.421875,0 -0.421875,0.1875 C 0.484375,0 0.59375,0 0.65625,0 c 0.265625,0 0.546875,-0.015625 0.8125,-0.015625 0.28125,0 0.578125,-0.015625 0.859375,-0.015625 0.28125,0 0.546875,0.015625 0.828125,0.015625 C 3.4375,-0.015625 3.734375,0 4.015625,0 c 0.09375,0 0.21875,0 0.21875,-0.203125 0,-0.109375 -0.078125,-0.109375 -0.34375,-0.109375 -0.234375,0 -0.375,0 -0.625,-0.015625 -0.296875,-0.03125 -0.375,-0.0625 -0.375,-0.21875 0,-0.015625 0,-0.0625 0.046875,-0.203125 z m 0,0"
                 id="id-7310b51c-29f0-4082-a3b3-1156344b67b3" />
            </symbol>
            <symbol
               overflow="visible"
               id="id-5af5a348-022e-4f29-86e0-176a18f3a878">
              <path
                 style="stroke:none"
                 d=""
                 id="id-8ee71151-9864-4139-bef7-d02bfb1b607b" />
            </symbol>
            <symbol
               overflow="visible"
               id="id-613f4d48-e337-4559-a53d-994c1ec99e97">
              <path
                 style="stroke:none"
                 d="M 1.96875,-4.625 C 1.96875,-4.640625 2,-4.734375 2,-4.734375 2,-4.78125 1.96875,-4.84375 1.875,-4.84375 c -0.140625,0 -0.71875,0.0625 -0.890625,0.078125 -0.046875,0 -0.140625,0.015625 -0.140625,0.15625 0,0.09375 0.09375,0.09375 0.171875,0.09375 0.34375,0 0.34375,0.0625 0.34375,0.109375 0,0.046875 -0.015625,0.09375 -0.03125,0.15625 l -0.875,3.4375 C 0.4375,-0.734375 0.4375,-0.65625 0.4375,-0.59375 c 0,0.453125 0.390625,0.65625 0.71875,0.65625 0.171875,0 0.390625,-0.046875 0.5625,-0.359375 C 1.875,-0.5625 1.96875,-0.96875 1.96875,-1 c 0,-0.09375 -0.09375,-0.09375 -0.109375,-0.09375 -0.109375,0 -0.125,0.046875 -0.140625,0.171875 C 1.625,-0.578125 1.484375,-0.125 1.1875,-0.125 1,-0.125 0.953125,-0.296875 0.953125,-0.46875 0.953125,-0.546875 0.96875,-0.671875 1,-0.75 Z m 0,0"
                 id="id-dc76a34b-2249-4881-8cd2-67e04ccfa654" />
            </symbol>
            <symbol
               overflow="visible"
               id="id-de6cb750-0a88-4860-a499-972b1629e018">
              <path
                 style="stroke:none"
                 d="m 2.265625,-4.359375 c 0,-0.109375 -0.09375,-0.265625 -0.28125,-0.265625 -0.1875,0 -0.390625,0.1875 -0.390625,0.390625 0,0.109375 0.078125,0.265625 0.28125,0.265625 0.1875,0 0.390625,-0.203125 0.390625,-0.390625 z M 0.84375,-0.8125 c -0.03125,0.09375 -0.0625,0.171875 -0.0625,0.296875 0,0.328125 0.265625,0.578125 0.65625,0.578125 0.6875,0 1,-0.953125 1,-1.0625 0,-0.09375 -0.09375,-0.09375 -0.109375,-0.09375 -0.09375,0 -0.109375,0.046875 -0.140625,0.125 -0.15625,0.5625 -0.453125,0.84375 -0.734375,0.84375 -0.140625,0 -0.171875,-0.09375 -0.171875,-0.25 0,-0.15625 0.046875,-0.28125 0.109375,-0.4375 C 1.46875,-1 1.546875,-1.1875 1.609375,-1.375 1.671875,-1.546875 1.9375,-2.171875 1.953125,-2.265625 1.984375,-2.328125 2,-2.40625 2,-2.484375 2,-2.8125 1.71875,-3.078125 1.34375,-3.078125 0.640625,-3.078125 0.328125,-2.125 0.328125,-2 c 0,0.078125 0.09375,0.078125 0.125,0.078125 0.09375,0 0.09375,-0.03125 0.125,-0.109375 C 0.75,-2.625 1.0625,-2.875 1.3125,-2.875 c 0.109375,0 0.171875,0.046875 0.171875,0.234375 0,0.171875 -0.03125,0.265625 -0.203125,0.703125 z m 0,0"
                 id="id-4483a0ac-c588-4018-8e00-b60222cb9303" />
            </symbol>
            <symbol
               overflow="visible"
               id="id-63e8745f-9d9c-45e0-8880-77b06f629423">
              <path
                 style="stroke:none"
                 d="m 3.546875,-2.875 c 0,-0.03125 0.015625,-0.0625 0.015625,-0.09375 0,-0.046875 -0.03125,-0.109375 -0.09375,-0.109375 -0.0625,0 -0.359375,0.234375 -0.5,0.46875 -0.0625,-0.140625 -0.296875,-0.46875 -0.75,-0.46875 -0.890625,0 -1.796875,0.984375 -1.796875,1.984375 0,0.6875 0.453125,1.15625 1.0625,1.15625 0.390625,0 0.71875,-0.25 0.875,-0.375 C 2.34375,-0.296875 2.125,0.578125 2.109375,0.703125 2,1.09375 2,1.09375 1.5625,1.09375 c -0.078125,0 -0.171875,0 -0.171875,0.15625 0,0.046875 0.03125,0.109375 0.09375,0.109375 0.234375,0 0.5,-0.03125 0.734375,-0.03125 0.234375,0 0.53125,0.03125 0.75,0.03125 0.0625,0 0.125,-0.03125 0.125,-0.15625 C 3.09375,1.09375 3,1.09375 2.921875,1.09375 c -0.15625,0 -0.34375,0 -0.34375,-0.078125 0,-0.015625 0,-0.03125 0.03125,-0.15625 z M 2.5,-0.875 C 2.453125,-0.765625 2.453125,-0.75 2.375,-0.640625 2.09375,-0.3125 1.765625,-0.125 1.5,-0.125 c -0.265625,0 -0.515625,-0.1875 -0.515625,-0.671875 0,-0.375 0.203125,-1.140625 0.375,-1.421875 0.3125,-0.5625 0.671875,-0.65625 0.859375,-0.65625 0.484375,0 0.625,0.53125 0.625,0.609375 0,0.03125 -0.015625,0.078125 -0.015625,0.09375 z m 0,0"
                 id="id-321ea166-50fa-4925-909e-47e6dd94d53a" />
            </symbol>
          </g>
        </defs>
        <g
           id="id-94172be7-e514-4428-9a84-e70494eb279e"
           transform="translate(-148.946,-128.015)">
          <g
             style="fill:#000000;fill-opacity:1"
             id="id-b3bd1f9b-3440-4ae6-a666-411b2edac818">
            <g
               transform="translate(148.712,134.765)"
               id="g1053">
              <path
                 style="stroke:none"
                 d="m 4.25,-6.046875 c 0.078125,-0.28125 0.109375,-0.34375 0.234375,-0.375 0.09375,-0.015625 0.421875,-0.015625 0.625,-0.015625 1.015625,0 1.453125,0.03125 1.453125,0.8125 0,0.15625 -0.03125,0.546875 -0.078125,0.796875 0,0.046875 -0.03125,0.15625 -0.03125,0.1875 0,0.0625 0.03125,0.140625 0.125,0.140625 0.109375,0 0.125,-0.078125 0.15625,-0.234375 L 7,-6.46875 C 7.015625,-6.515625 7.015625,-6.609375 7.015625,-6.640625 7.015625,-6.75 6.921875,-6.75 6.75,-6.75 H 1.21875 c -0.234375,0 -0.25,0.015625 -0.328125,0.203125 l -0.59375,1.75 c 0,0.015625 -0.0625,0.15625 -0.0625,0.1875 0,0.046875 0.0625,0.109375 0.125,0.109375 0.09375,0 0.109375,-0.0625 0.171875,-0.21875 C 1.0625,-6.265625 1.328125,-6.4375 2.796875,-6.4375 H 3.1875 c 0.28125,0 0.28125,0.03125 0.28125,0.125 0,0.046875 -0.03125,0.171875 -0.046875,0.203125 L 2.09375,-0.78125 C 2,-0.421875 1.96875,-0.3125 0.90625,-0.3125 c -0.359375,0 -0.421875,0 -0.421875,0.1875 C 0.484375,0 0.59375,0 0.65625,0 c 0.265625,0 0.546875,-0.015625 0.8125,-0.015625 0.28125,0 0.578125,-0.015625 0.859375,-0.015625 0.28125,0 0.546875,0.015625 0.828125,0.015625 C 3.4375,-0.015625 3.734375,0 4.015625,0 c 0.09375,0 0.21875,0 0.21875,-0.203125 0,-0.109375 -0.078125,-0.109375 -0.34375,-0.109375 -0.234375,0 -0.375,0 -0.625,-0.015625 -0.296875,-0.03125 -0.375,-0.0625 -0.375,-0.21875 0,-0.015625 0,-0.0625 0.046875,-0.203125 z m 0,0"
                 id="id-e675fdc6-8d55-4aed-bb46-3940bf1a57f3" />
            </g>
          </g>
          <g
             style="fill:#000000;fill-opacity:1"
             id="id-7f77efa5-56c5-4384-af85-b321ee1235ad">
            <g
               transform="translate(154.534,136.259)"
               id="g7578">
              <path
                 style="stroke:none"
                 d="M 1.96875,-4.625 C 1.96875,-4.640625 2,-4.734375 2,-4.734375 2,-4.78125 1.96875,-4.84375 1.875,-4.84375 c -0.140625,0 -0.71875,0.0625 -0.890625,0.078125 -0.046875,0 -0.140625,0.015625 -0.140625,0.15625 0,0.09375 0.09375,0.09375 0.171875,0.09375 0.34375,0 0.34375,0.0625 0.34375,0.109375 0,0.046875 -0.015625,0.09375 -0.03125,0.15625 l -0.875,3.4375 C 0.4375,-0.734375 0.4375,-0.65625 0.4375,-0.59375 c 0,0.453125 0.390625,0.65625 0.71875,0.65625 0.171875,0 0.390625,-0.046875 0.5625,-0.359375 C 1.875,-0.5625 1.96875,-0.96875 1.96875,-1 c 0,-0.09375 -0.09375,-0.09375 -0.109375,-0.09375 -0.109375,0 -0.125,0.046875 -0.140625,0.171875 C 1.625,-0.578125 1.484375,-0.125 1.1875,-0.125 1,-0.125 0.953125,-0.296875 0.953125,-0.46875 0.953125,-0.546875 0.96875,-0.671875 1,-0.75 Z m 0,0"
                 id="id-b4512018-f45e-4f0f-a4ef-b9d316e83a82" />
            </g>
          </g>
          <g
             style="fill:#000000;fill-opacity:1"
             id="id-92ec8fec-27e4-4077-b6ab-47041483815c">
            <g
               transform="translate(157.095,136.259)"
               id="g7343">
              <path
                 style="stroke:none"
                 d="m 2.265625,-4.359375 c 0,-0.109375 -0.09375,-0.265625 -0.28125,-0.265625 -0.1875,0 -0.390625,0.1875 -0.390625,0.390625 0,0.109375 0.078125,0.265625 0.28125,0.265625 0.1875,0 0.390625,-0.203125 0.390625,-0.390625 z M 0.84375,-0.8125 c -0.03125,0.09375 -0.0625,0.171875 -0.0625,0.296875 0,0.328125 0.265625,0.578125 0.65625,0.578125 0.6875,0 1,-0.953125 1,-1.0625 0,-0.09375 -0.09375,-0.09375 -0.109375,-0.09375 -0.09375,0 -0.109375,0.046875 -0.140625,0.125 -0.15625,0.5625 -0.453125,0.84375 -0.734375,0.84375 -0.140625,0 -0.171875,-0.09375 -0.171875,-0.25 0,-0.15625 0.046875,-0.28125 0.109375,-0.4375 C 1.46875,-1 1.546875,-1.1875 1.609375,-1.375 1.671875,-1.546875 1.9375,-2.171875 1.953125,-2.265625 1.984375,-2.328125 2,-2.40625 2,-2.484375 2,-2.8125 1.71875,-3.078125 1.34375,-3.078125 0.640625,-3.078125 0.328125,-2.125 0.328125,-2 c 0,0.078125 0.09375,0.078125 0.125,0.078125 0.09375,0 0.09375,-0.03125 0.125,-0.109375 C 0.75,-2.625 1.0625,-2.875 1.3125,-2.875 c 0.109375,0 0.171875,0.046875 0.171875,0.234375 0,0.171875 -0.03125,0.265625 -0.203125,0.703125 z m 0,0"
                 id="id-b2403cfe-9e65-4faf-a5d3-2f3b400956bd" />
            </g>
            <g
               transform="translate(159.914,136.259)"
               id="g4789">
              <path
                 style="stroke:none"
                 d="m 3.546875,-2.875 c 0,-0.03125 0.015625,-0.0625 0.015625,-0.09375 0,-0.046875 -0.03125,-0.109375 -0.09375,-0.109375 -0.0625,0 -0.359375,0.234375 -0.5,0.46875 -0.0625,-0.140625 -0.296875,-0.46875 -0.75,-0.46875 -0.890625,0 -1.796875,0.984375 -1.796875,1.984375 0,0.6875 0.453125,1.15625 1.0625,1.15625 0.390625,0 0.71875,-0.25 0.875,-0.375 C 2.34375,-0.296875 2.125,0.578125 2.109375,0.703125 2,1.09375 2,1.09375 1.5625,1.09375 c -0.078125,0 -0.171875,0 -0.171875,0.15625 0,0.046875 0.03125,0.109375 0.09375,0.109375 0.234375,0 0.5,-0.03125 0.734375,-0.03125 0.234375,0 0.53125,0.03125 0.75,0.03125 0.0625,0 0.125,-0.03125 0.125,-0.15625 C 3.09375,1.09375 3,1.09375 2.921875,1.09375 c -0.15625,0 -0.34375,0 -0.34375,-0.078125 0,-0.015625 0,-0.03125 0.03125,-0.15625 z M 2.5,-0.875 C 2.453125,-0.765625 2.453125,-0.75 2.375,-0.640625 2.09375,-0.3125 1.765625,-0.125 1.5,-0.125 c -0.265625,0 -0.515625,-0.1875 -0.515625,-0.671875 0,-0.375 0.203125,-1.140625 0.375,-1.421875 0.3125,-0.5625 0.671875,-0.65625 0.859375,-0.65625 0.484375,0 0.625,0.53125 0.625,0.609375 0,0.03125 -0.015625,0.078125 -0.015625,0.09375 z m 0,0"
                 id="id-9accb3d1-9431-4738-8511-bde28b99c2a6" />
            </g>
          </g>
        </g>
      </g>
      <g
         transform="matrix(0.529166,0,0,0.529166,95.3637,42.9473)"
         ns5:version="1.9.0"
         ns5:texconverter="pdflatex"
         ns5:pdfconverter="inkscape"
         ns5:text="$T_{sol}$"
         ns5:preamble="/home/jeff/.config/inkscape/extensions/textext/default_packages.tex"
         ns5:scale="1.5"
         ns5:alignment="middle center"
         ns5:stroke-to-path="0"
         ns5:inkscapeversion="1.3.2"
         id="g8421-1"
         ns5:jacobian_sqrt="0.529166">
        <defs
           id="id-c5a9437b-4708-4b25-9811-c79469a46c74">
          <g
             id="id-39186390-8883-4dfe-b57e-07784eb12712">
            <symbol
               overflow="visible"
               id="id-2c9c0167-71e0-4812-a113-edbd0a49acb5">
              <path
                 style="stroke:none"
                 d=""
                 id="id-b9ae289c-4e27-4752-9ba6-e0fa7a0676d7" />
            </symbol>
            <symbol
               overflow="visible"
               id="id-b6cbffe8-c870-405b-a8d3-95609b4c6ccf">
              <path
                 style="stroke:none"
                 d="m 4.25,-6.046875 c 0.078125,-0.28125 0.109375,-0.34375 0.234375,-0.375 0.09375,-0.015625 0.421875,-0.015625 0.625,-0.015625 1.015625,0 1.453125,0.03125 1.453125,0.8125 0,0.15625 -0.03125,0.546875 -0.078125,0.796875 0,0.046875 -0.03125,0.15625 -0.03125,0.1875 0,0.0625 0.03125,0.140625 0.125,0.140625 0.109375,0 0.125,-0.078125 0.15625,-0.234375 L 7,-6.46875 C 7.015625,-6.515625 7.015625,-6.609375 7.015625,-6.640625 7.015625,-6.75 6.921875,-6.75 6.75,-6.75 H 1.21875 c -0.234375,0 -0.25,0.015625 -0.328125,0.203125 l -0.59375,1.75 c 0,0.015625 -0.0625,0.15625 -0.0625,0.1875 0,0.046875 0.0625,0.109375 0.125,0.109375 0.09375,0 0.109375,-0.0625 0.171875,-0.21875 C 1.0625,-6.265625 1.328125,-6.4375 2.796875,-6.4375 H 3.1875 c 0.28125,0 0.28125,0.03125 0.28125,0.125 0,0.046875 -0.03125,0.171875 -0.046875,0.203125 L 2.09375,-0.78125 C 2,-0.421875 1.96875,-0.3125 0.90625,-0.3125 c -0.359375,0 -0.421875,0 -0.421875,0.1875 C 0.484375,0 0.59375,0 0.65625,0 c 0.265625,0 0.546875,-0.015625 0.8125,-0.015625 0.28125,0 0.578125,-0.015625 0.859375,-0.015625 0.28125,0 0.546875,0.015625 0.828125,0.015625 C 3.4375,-0.015625 3.734375,0 4.015625,0 c 0.09375,0 0.21875,0 0.21875,-0.203125 0,-0.109375 -0.078125,-0.109375 -0.34375,-0.109375 -0.234375,0 -0.375,0 -0.625,-0.015625 -0.296875,-0.03125 -0.375,-0.0625 -0.375,-0.21875 0,-0.015625 0,-0.0625 0.046875,-0.203125 z m 0,0"
                 id="id-7257339f-e53e-4c60-b6d6-cb2a656aaa5c" />
            </symbol>
            <symbol
               overflow="visible"
               id="id-bc50084c-2ae6-4802-8389-3c12c5df52cd">
              <path
                 style="stroke:none"
                 d=""
                 id="id-a6b2bcae-fe94-47ab-b760-8675f7c963d1" />
            </symbol>
            <symbol
               overflow="visible"
               id="id-584672f0-fe1b-44c2-8dd4-fd350a77dc7d">
              <path
                 style="stroke:none"
                 d="m 3,-2.625 c -0.171875,0.046875 -0.296875,0.1875 -0.296875,0.328125 0,0.171875 0.140625,0.234375 0.234375,0.234375 0.078125,0 0.34375,-0.046875 0.34375,-0.40625 0,-0.453125 -0.5,-0.609375 -0.9375,-0.609375 -1.078125,0 -1.28125,0.8125 -1.28125,1.015625 0,0.265625 0.15625,0.4375 0.25,0.515625 0.171875,0.140625 0.296875,0.171875 0.78125,0.25 0.15625,0.03125 0.59375,0.109375 0.59375,0.453125 0,0.125 -0.078125,0.390625 -0.359375,0.5625 C 2.046875,-0.125 1.703125,-0.125 1.625,-0.125 1.34375,-0.125 0.953125,-0.1875 0.78125,-0.421875 1.015625,-0.453125 1.171875,-0.625 1.171875,-0.8125 c 0,-0.171875 -0.125,-0.265625 -0.265625,-0.265625 -0.203125,0 -0.40625,0.171875 -0.40625,0.46875 0,0.421875 0.4375,0.671875 1.109375,0.671875 1.296875,0 1.53125,-0.875 1.53125,-1.140625 0,-0.640625 -0.703125,-0.765625 -0.96875,-0.8125 -0.0625,-0.015625 -0.234375,-0.046875 -0.28125,-0.0625 -0.25,-0.046875 -0.375,-0.1875 -0.375,-0.34375 0,-0.15625 0.125,-0.34375 0.28125,-0.453125 0.1875,-0.109375 0.421875,-0.125 0.546875,-0.125 0.140625,0 0.5,0.015625 0.65625,0.25 z m 0,0"
                 id="id-0743eed6-573e-493e-bec4-f2d879c55aff" />
            </symbol>
            <symbol
               overflow="visible"
               id="id-3561c916-8e45-41cd-92ea-7ed4a013ced4">
              <path
                 style="stroke:none"
                 d="m 3.703125,-1.859375 c 0,-0.765625 -0.578125,-1.21875 -1.265625,-1.21875 -1.03125,0 -2,0.96875 -2,1.921875 0,0.703125 0.5,1.21875 1.265625,1.21875 1,0 2,-0.90625 2,-1.921875 z m -2,1.734375 c -0.34375,0 -0.6875,-0.21875 -0.6875,-0.78125 0,-0.28125 0.125,-0.96875 0.40625,-1.359375 C 1.71875,-2.703125 2.125,-2.875 2.4375,-2.875 c 0.375,0 0.6875,0.25 0.6875,0.765625 C 3.125,-1.9375 3.046875,-1.25 2.734375,-0.765625 2.46875,-0.34375 2.0625,-0.125 1.703125,-0.125 Z m 0,0"
                 id="id-2236e228-ad49-45b5-8259-e8cfa02d55ca" />
            </symbol>
            <symbol
               overflow="visible"
               id="id-60935f86-e77a-47fb-8167-cfcc9efe37df">
              <path
                 style="stroke:none"
                 d="M 1.96875,-4.625 C 1.96875,-4.640625 2,-4.734375 2,-4.734375 2,-4.78125 1.96875,-4.84375 1.875,-4.84375 c -0.140625,0 -0.71875,0.0625 -0.890625,0.078125 -0.046875,0 -0.140625,0.015625 -0.140625,0.15625 0,0.09375 0.09375,0.09375 0.171875,0.09375 0.34375,0 0.34375,0.0625 0.34375,0.109375 0,0.046875 -0.015625,0.09375 -0.03125,0.15625 l -0.875,3.4375 C 0.4375,-0.734375 0.4375,-0.65625 0.4375,-0.59375 c 0,0.453125 0.390625,0.65625 0.71875,0.65625 0.171875,0 0.390625,-0.046875 0.5625,-0.359375 C 1.875,-0.5625 1.96875,-0.96875 1.96875,-1 c 0,-0.09375 -0.09375,-0.09375 -0.109375,-0.09375 -0.109375,0 -0.125,0.046875 -0.140625,0.171875 C 1.625,-0.578125 1.484375,-0.125 1.1875,-0.125 1,-0.125 0.953125,-0.296875 0.953125,-0.46875 0.953125,-0.546875 0.96875,-0.671875 1,-0.75 Z m 0,0"
                 id="id-9e330239-0382-49fd-b117-272a8bca18a5" />
            </symbol>
          </g>
        </defs>
        <g
           id="id-535c5907-d180-4181-b763-18c5aa29fd82"
           transform="translate(-148.946,-128.015)">
          <g
             style="fill:#000000;fill-opacity:1"
             id="id-37779f44-48dd-4c11-a025-a5d954bf5bca">
            <g
               transform="translate(148.712,134.765)"
               id="g9145">
              <path
                 style="stroke:none"
                 d="m 4.25,-6.046875 c 0.078125,-0.28125 0.109375,-0.34375 0.234375,-0.375 0.09375,-0.015625 0.421875,-0.015625 0.625,-0.015625 1.015625,0 1.453125,0.03125 1.453125,0.8125 0,0.15625 -0.03125,0.546875 -0.078125,0.796875 0,0.046875 -0.03125,0.15625 -0.03125,0.1875 0,0.0625 0.03125,0.140625 0.125,0.140625 0.109375,0 0.125,-0.078125 0.15625,-0.234375 L 7,-6.46875 C 7.015625,-6.515625 7.015625,-6.609375 7.015625,-6.640625 7.015625,-6.75 6.921875,-6.75 6.75,-6.75 H 1.21875 c -0.234375,0 -0.25,0.015625 -0.328125,0.203125 l -0.59375,1.75 c 0,0.015625 -0.0625,0.15625 -0.0625,0.1875 0,0.046875 0.0625,0.109375 0.125,0.109375 0.09375,0 0.109375,-0.0625 0.171875,-0.21875 C 1.0625,-6.265625 1.328125,-6.4375 2.796875,-6.4375 H 3.1875 c 0.28125,0 0.28125,0.03125 0.28125,0.125 0,0.046875 -0.03125,0.171875 -0.046875,0.203125 L 2.09375,-0.78125 C 2,-0.421875 1.96875,-0.3125 0.90625,-0.3125 c -0.359375,0 -0.421875,0 -0.421875,0.1875 C 0.484375,0 0.59375,0 0.65625,0 c 0.265625,0 0.546875,-0.015625 0.8125,-0.015625 0.28125,0 0.578125,-0.015625 0.859375,-0.015625 0.28125,0 0.546875,0.015625 0.828125,0.015625 C 3.4375,-0.015625 3.734375,0 4.015625,0 c 0.09375,0 0.21875,0 0.21875,-0.203125 0,-0.109375 -0.078125,-0.109375 -0.34375,-0.109375 -0.234375,0 -0.375,0 -0.625,-0.015625 -0.296875,-0.03125 -0.375,-0.0625 -0.375,-0.21875 0,-0.015625 0,-0.0625 0.046875,-0.203125 z m 0,0"
                 id="id-0c6e7f13-5483-422f-9072-3ba339b9fe0e" />
            </g>
          </g>
          <g
             style="fill:#000000;fill-opacity:1"
             id="id-433f84b5-aeab-4631-b1ae-74383d4c2c37">
            <g
               transform="translate(154.534,136.259)"
               id="g3677">
              <path
                 style="stroke:none"
                 d="m 3,-2.625 c -0.171875,0.046875 -0.296875,0.1875 -0.296875,0.328125 0,0.171875 0.140625,0.234375 0.234375,0.234375 0.078125,0 0.34375,-0.046875 0.34375,-0.40625 0,-0.453125 -0.5,-0.609375 -0.9375,-0.609375 -1.078125,0 -1.28125,0.8125 -1.28125,1.015625 0,0.265625 0.15625,0.4375 0.25,0.515625 0.171875,0.140625 0.296875,0.171875 0.78125,0.25 0.15625,0.03125 0.59375,0.109375 0.59375,0.453125 0,0.125 -0.078125,0.390625 -0.359375,0.5625 C 2.046875,-0.125 1.703125,-0.125 1.625,-0.125 1.34375,-0.125 0.953125,-0.1875 0.78125,-0.421875 1.015625,-0.453125 1.171875,-0.625 1.171875,-0.8125 c 0,-0.171875 -0.125,-0.265625 -0.265625,-0.265625 -0.203125,0 -0.40625,0.171875 -0.40625,0.46875 0,0.421875 0.4375,0.671875 1.109375,0.671875 1.296875,0 1.53125,-0.875 1.53125,-1.140625 0,-0.640625 -0.703125,-0.765625 -0.96875,-0.8125 -0.0625,-0.015625 -0.234375,-0.046875 -0.28125,-0.0625 -0.25,-0.046875 -0.375,-0.1875 -0.375,-0.34375 0,-0.15625 0.125,-0.34375 0.28125,-0.453125 0.1875,-0.109375 0.421875,-0.125 0.546875,-0.125 0.140625,0 0.5,0.015625 0.65625,0.25 z m 0,0"
                 id="id-d8b09e15-6514-4802-a9f6-91d39c87e927" />
            </g>
            <g
               transform="translate(158.294,136.259)"
               id="g8069">
              <path
                 style="stroke:none"
                 d="m 3.703125,-1.859375 c 0,-0.765625 -0.578125,-1.21875 -1.265625,-1.21875 -1.03125,0 -2,0.96875 -2,1.921875 0,0.703125 0.5,1.21875 1.265625,1.21875 1,0 2,-0.90625 2,-1.921875 z m -2,1.734375 c -0.34375,0 -0.6875,-0.21875 -0.6875,-0.78125 0,-0.28125 0.125,-0.96875 0.40625,-1.359375 C 1.71875,-2.703125 2.125,-2.875 2.4375,-2.875 c 0.375,0 0.6875,0.25 0.6875,0.765625 C 3.125,-1.9375 3.046875,-1.25 2.734375,-0.765625 2.46875,-0.34375 2.0625,-0.125 1.703125,-0.125 Z m 0,0"
                 id="id-56ef8751-c1ab-432a-ad9d-58ccccba0bca" />
            </g>
            <g
               transform="translate(162.227,136.259)"
               id="g3132">
              <path
                 style="stroke:none"
                 d="M 1.96875,-4.625 C 1.96875,-4.640625 2,-4.734375 2,-4.734375 2,-4.78125 1.96875,-4.84375 1.875,-4.84375 c -0.140625,0 -0.71875,0.0625 -0.890625,0.078125 -0.046875,0 -0.140625,0.015625 -0.140625,0.15625 0,0.09375 0.09375,0.09375 0.171875,0.09375 0.34375,0 0.34375,0.0625 0.34375,0.109375 0,0.046875 -0.015625,0.09375 -0.03125,0.15625 l -0.875,3.4375 C 0.4375,-0.734375 0.4375,-0.65625 0.4375,-0.59375 c 0,0.453125 0.390625,0.65625 0.71875,0.65625 0.171875,0 0.390625,-0.046875 0.5625,-0.359375 C 1.875,-0.5625 1.96875,-0.96875 1.96875,-1 c 0,-0.09375 -0.09375,-0.09375 -0.109375,-0.09375 -0.109375,0 -0.125,0.046875 -0.140625,0.171875 C 1.625,-0.578125 1.484375,-0.125 1.1875,-0.125 1,-0.125 0.953125,-0.296875 0.953125,-0.46875 0.953125,-0.546875 0.96875,-0.671875 1,-0.75 Z m 0,0"
                 id="id-678977b5-9ee1-4c05-a7b1-9652edee6d33" />
            </g>
          </g>
        </g>
      </g>
      <circle
         style="fill:none;fill-opacity:0.5;stroke:#000000;stroke-width:0.499998;stroke-linejoin:round;stroke-dasharray:none;stroke-dashoffset:0;stroke-opacity:1"
         id="path6-5-5"
         cx="153.41447"
         cy="40.644115"
         r="7.250001" />
      <g
         id="g12-7"
         transform="translate(59.139538,-137.23925)">
        <path
           style="fill:none;stroke:#000000;stroke-width:0.264583px;stroke-linecap:butt;stroke-linejoin:miter;stroke-opacity:1"
           d="m 89.802744,172.45986 2.036075,3.52659 3.362399,-1.94128 0.877144,-3.27356"
           id="path7-4" />
        <path
           style="fill:none;stroke:#000000;stroke-width:0.264583px;stroke-linecap:butt;stroke-linejoin:miter;stroke-opacity:1"
           d="m 95.163557,173.97184 1.914601,3.31618 4.167292,-1.15881"
           id="path8-5"
           sodipodi:nodetypes="ccc" />
        <path
           style="fill:none;stroke:#000000;stroke-width:0.264583px;stroke-linecap:butt;stroke-linejoin:miter;stroke-opacity:1"
           d="m 97.07619,177.32774 -0.856393,3.1961 -2.722758,0.72956 -1.918414,-1.91841 0.290459,-3.33402"
           id="path9-2" />
        <path
           style="fill:none;stroke:#000000;stroke-width:0.264583px;stroke-linecap:butt;stroke-linejoin:miter;stroke-opacity:1"
           d="m 91.504479,179.27636 -3.446407,1.7391"
           id="path10-5"
           sodipodi:nodetypes="cc" />
        <path
           style="fill:none;stroke:#000000;stroke-width:0.264583px;stroke-linecap:butt;stroke-linejoin:miter;stroke-opacity:1"
           d="m 93.511279,181.20009 -0.656135,3.49918"
           id="path11-4"
           sodipodi:nodetypes="cc" />
        <path
           style="fill:none;stroke:#000000;stroke-width:0.264583px;stroke-linecap:butt;stroke-linejoin:miter;stroke-opacity:1"
           d="m 96.290835,180.54041 2.375748,2.67982"
           id="path12-7"
           sodipodi:nodetypes="cc" />
      </g>
      <circle
         style="fill:none;fill-opacity:0.5;stroke:#000000;stroke-width:0.2;stroke-linejoin:round;stroke-dasharray:none;stroke-dashoffset:0;stroke-opacity:1"
         id="path34"
         cx="154.9613"
         cy="40.062275"
         r="0.69136971" />
      <g
         id="g13-3"
         transform="translate(104.36076,-88.703478)">
        <circle
           style="fill:#e400e4;fill-opacity:0.5;stroke:#000000;stroke-width:0.499998;stroke-linejoin:round;stroke-dasharray:none;stroke-dashoffset:0;stroke-opacity:1"
           id="path6-5-5-0"
           cx="49.053722"
           cy="147.29819"
           r="7.250001" />
        <g
           id="g12-7-7"
           transform="translate(-45.221212,-30.585178)">
          <path
             style="fill:none;stroke:#000000;stroke-width:0.264583px;stroke-linecap:butt;stroke-linejoin:miter;stroke-opacity:1"
             d="m 89.802744,172.45986 2.036075,3.52659 3.362399,-1.94128 0.877144,-3.27356"
             id="path7-4-8" />
          <path
             style="fill:none;stroke:#000000;stroke-width:0.264583px;stroke-linecap:butt;stroke-linejoin:miter;stroke-opacity:1"
             d="m 95.163557,173.97184 1.914601,3.31618 4.167292,-1.15881"
             id="path8-5-6"
             sodipodi:nodetypes="ccc" />
          <path
             style="fill:none;stroke:#000000;stroke-width:0.264583px;stroke-linecap:butt;stroke-linejoin:miter;stroke-opacity:1"
             d="m 97.07619,177.32774 -0.856393,3.1961 -2.722758,0.72956 -1.918414,-1.91841 0.290459,-3.33402"
             id="path9-2-8" />
          <path
             style="fill:none;stroke:#000000;stroke-width:0.264583px;stroke-linecap:butt;stroke-linejoin:miter;stroke-opacity:1"
             d="m 91.504479,179.27636 -3.446407,1.7391"
             id="path10-5-8"
             sodipodi:nodetypes="cc" />
          <path
             style="fill:none;stroke:#000000;stroke-width:0.264583px;stroke-linecap:butt;stroke-linejoin:miter;stroke-opacity:1"
             d="m 93.511279,181.20009 -0.656135,3.49918"
             id="path11-4-4"
             sodipodi:nodetypes="cc" />
          <path
             style="fill:none;stroke:#000000;stroke-width:0.264583px;stroke-linecap:butt;stroke-linejoin:miter;stroke-opacity:1"
             d="m 96.290835,180.54041 2.375748,2.67982"
             id="path12-7-3"
             sodipodi:nodetypes="cc" />
        </g>
      </g>
      <path
         style="fill:none;stroke:#000000;stroke-width:0.264583px;stroke-linecap:butt;stroke-linejoin:miter;stroke-opacity:1;marker-start:url(#Sketch);marker-mid:url(#Tail)"
         d="m 70.307495,74.660985 h 9.536821"
         id="path20" />
      <text
         xml:space="preserve"
         style="font-size:4.23333px;line-height:1.25;font-family:'TeX Gyre Schola Math';-inkscape-font-specification:'TeX Gyre Schola Math';text-align:end;letter-spacing:0px;word-spacing:0px;text-anchor:end;stroke-width:0.264583"
         x="81.403336"
         y="72.862335"
         id="text1"><tspan
           sodipodi:role="line"
           id="tspan1"
           style="font-size:4.23333px;stroke-width:0.264583"
           x="81.403336"
           y="72.862335">ENDO</tspan></text>
      <path
         style="fill:#e400e4;fill-opacity:0.5;stroke:none;stroke-width:2.49999;stroke-linejoin:round;stroke-dasharray:4, 4"
         d="m 555.45098,163.5997 c -3.91381,-9.67969 -1.73029,-20.95983 5.46161,-28.21491 0.8982,-0.9061 1.6576,-1.6174 1.68756,-1.58068 0.03,0.0367 1.72612,2.95824 3.76926,6.49225 l 3.71479,6.42549 -0.42044,5.24718 c -0.23124,2.88595 -0.49696,5.50529 -0.59048,5.82076 -0.1341,0.45236 -1.50447,1.26089 -6.48393,3.82557 -3.47263,1.7886 -6.38325,3.25403 -6.46802,3.25652 -0.0848,0.002 -0.38644,-0.56999 -0.67035,-1.27218 z"
         id="path1"
         transform="scale(0.26458333)" />
      <path
         style="fill:#e400e4;fill-opacity:0.5;stroke:none;stroke-width:2.49999;stroke-linejoin:round;stroke-dasharray:4, 4"
         d="m 571.47425,178.59232 c -4.13213,-1.40308 -8.47479,-4.2746 -11.25291,-7.44083 -1.26614,-1.44301 -3.5811,-4.70852 -3.5811,-5.05152 0,-0.0752 2.84539,-1.55607 6.32309,-3.2908 l 6.32309,-3.15407 3.4821,3.47589 3.4821,3.47589 -1.01706,5.39666 c -0.55938,2.96816 -1.09187,5.80703 -1.1833,6.30859 -0.0914,0.50156 -0.29807,0.90912 -0.4592,0.9057 -0.16113,-0.003 -1.11369,-0.2849 -2.11681,-0.62551 z"
         id="path2"
         transform="scale(0.26458333)" />
      <path
         style="fill:#e400e4;fill-opacity:0.5;stroke:none;stroke-width:2.49999;stroke-linejoin:round;stroke-dasharray:4, 4"
         d="m 573.60203,162.26221 -3.33726,-3.34373 0.52756,-6.07952 0.52755,-6.07951 5.82699,-3.36078 c 4.76655,-2.74916 5.88189,-3.30236 6.12864,-3.03976 0.16591,0.17657 1.69658,2.75485 3.40149,5.72952 l 3.09984,5.40849 -1.54252,5.79992 -1.54252,5.79992 -4.7514,1.2633 c -2.61327,0.69481 -4.80759,1.25938 -4.87626,1.25459 -0.0687,-0.005 -1.62661,-1.51339 -3.46211,-3.35244 z m 13.55189,-8.12751 c 1.02703,-0.46794 1.6669,-1.74848 1.5209,-3.04372 -0.4239,-3.76084 -6.01427,-3.50271 -6.01427,0.2777 0,2.34071 2.30827,3.76162 4.49337,2.76602 z"
         id="path5"
         transform="scale(0.26458333)" />
      <path
         style="fill:#e400e4;fill-opacity:0.5;stroke:none;stroke-width:2.49999;stroke-linejoin:round;stroke-dasharray:4, 4"
         d="m 567.34018,139.5195 c -1.93936,-3.36535 -3.55891,-6.24579 -3.59898,-6.40096 -0.20344,-0.78771 6.01949,-4.10788 9.26421,-4.94281 3.08525,-0.79391 6.5109,-1.06836 9.38607,-0.75198 2.63932,0.29042 3.18724,0.41816 3.18724,0.74305 0,0.62463 -2.75582,10.36876 -2.99561,10.592 -0.15803,0.14712 -2.6401,1.61466 -5.51571,3.26121 -2.87561,1.64654 -5.44724,3.13425 -5.71474,3.30601 -0.45859,0.29448 -0.68769,-0.0371 -4.01248,-5.80652 z"
         id="path6"
         transform="scale(0.26458333)" />
      <path
         style="fill:#e400e4;fill-opacity:0.5;stroke:none;stroke-width:2.49999;stroke-linejoin:round;stroke-dasharray:4, 4"
         d="m 590.35457,149.98159 c -0.77205,-1.23461 -6.01544,-10.41792 -6.15301,-10.77641 -0.0818,-0.21316 0.48929,-2.77269 1.26908,-5.68786 l 1.4178,-5.3003 1.59456,0.54281 c 6.10064,2.07671 11.59793,6.8138 14.62313,12.60094 0.54533,1.0432 1.24943,2.65505 1.56467,3.5819 l 0.57316,1.68516 -1.01733,0.27061 c -0.55952,0.14883 -3.7291,1.02654 -7.04349,1.95046 -3.3144,0.92392 -6.12973,1.67985 -6.25629,1.67985 -0.12657,0 -0.3841,-0.24622 -0.57228,-0.54716 z"
         id="path7"
         transform="scale(0.26458333)" />
      <path
         style="fill:#e400e4;fill-opacity:0.5;stroke:none;stroke-width:2.49999;stroke-linejoin:round;stroke-dasharray:4, 4"
         d="m 596.76503,173.4245 c 0,-0.11969 -1.96977,-2.43429 -4.37725,-5.14357 -2.40749,-2.70928 -4.37725,-5.02904 -4.37725,-5.15502 0,-0.23235 2.92583,-11.23902 2.99963,-11.28428 0.0221,-0.0135 3.26204,-0.91609 7.19995,-2.00567 5.31859,-1.47162 7.2068,-1.90504 7.34253,-1.68544 0.31846,0.51528 0.57594,3.38199 0.54343,6.05039 -0.0743,6.09423 -2.27778,11.83093 -6.40688,16.67973 -1.54861,1.81854 -2.92416,3.0152 -2.92416,2.54386 z"
         id="path8"
         transform="scale(0.26458333)" />
      <path
         style="fill:#e400e4;fill-opacity:0.5;stroke:none;stroke-width:2.49999;stroke-linejoin:round;stroke-dasharray:4, 4"
         d="m 576.45945,179.77487 c -0.535,-0.0533 -1.05947,-0.18187 -1.1655,-0.28564 -0.13725,-0.13434 1.89576,-12.13812 2.13354,-12.59732 0.0522,-0.10091 9.16063,-2.50187 9.49117,-2.50187 0.18516,0 2.05154,1.9424 4.14749,4.31645 2.09596,2.37405 4.11309,4.60413 4.48251,4.95572 l 0.67169,0.63927 -1.85549,1.21628 c -2.37202,1.55488 -3.3093,2.0194 -5.95916,2.95337 -3.55845,1.25423 -7.79962,1.71708 -11.94625,1.30374 z"
         id="path11"
         transform="scale(0.26458333)" />
      <path
         style="fill:#3200b2;fill-opacity:0.5;stroke:none;stroke-width:2.49999;stroke-linejoin:round;stroke-dasharray:4, 4"
         d="m 584.23017,152.85002 c -1.67711,-1.67712 0.30612,-4.36844 2.39806,-3.25427 1.94141,1.034 1.26263,3.85117 -0.92792,3.85117 -0.6029,0 -1.05802,-0.18479 -1.47014,-0.5969 z"
         id="path12"
         transform="scale(0.26458333)" />
      <path
         style="fill:#e400e4;fill-opacity:0.5;stroke:none;stroke-width:3.77954;stroke-linejoin:round;stroke-dasharray:none"
         d="m 505.97486,179.56528 c -9.12609,-1.64883 -16.65857,-7.81816 -20.0739,-16.44113 -2.13342,-5.38642 -2.29707,-12.36147 -0.41921,-17.86735 2.99097,-8.7695 10.31167,-15.32654 19.4106,-17.38577 2.92859,-0.66278 7.92049,-0.70567 10.77197,-0.0926 8.66345,1.86282 16.02248,8.00467 19.19166,16.01739 1.45205,3.67124 1.69261,5.05021 1.70485,9.77264 0.0105,4.05584 -0.0381,4.55581 -0.66268,6.80905 -3.22314,11.62871 -13.77582,19.66523 -25.67645,19.55421 -1.28654,-0.012 -3.19762,-0.17692 -4.24684,-0.36649 z m -3.2749,-32.31408 1.62648,-0.43423 0.53704,-2.22765 0.53703,-2.22764 -1.14237,-1.98053 c -0.6283,-1.08929 -1.3283,-2.0182 -1.55556,-2.06424 -0.50179,-0.10166 -4.10485,1.97314 -4.31474,2.48462 -0.0823,0.20062 -0.24205,1.24022 -0.35494,2.31021 l -0.20526,1.94545 1.37615,1.40235 c 0.75689,0.7713 1.4872,1.36265 1.62293,1.31412 0.13572,-0.0485 0.97868,-0.28364 1.87324,-0.52246 z"
         id="path13"
         transform="scale(0.26458333)" />
      <path
         style="fill:#b20032;fill-opacity:0.5;stroke:none;stroke-width:3.77954;stroke-linejoin:round;stroke-dasharray:none"
         d="m 500.02688,145.59277 c -0.69908,-0.72126 -0.77725,-0.94894 -0.77725,-2.26374 0,-1.68978 0.15711,-1.93832 1.87673,-2.96883 l 1.26878,-0.76033 0.84291,1.51275 0.8429,1.51276 -0.38552,1.6009 c -0.383,1.59046 -0.39244,1.60275 -1.44643,1.88465 -1.41286,0.37788 -1.33635,0.39572 -2.22212,-0.51816 z"
         id="path14"
         transform="scale(0.26458333)" />
    </g>
  </g>
</svg>
